<svg preserveAspectRatio="none" width="100%" height="100%" overflow="visible" style="display: block;" viewBox="0 0 16 16" fill="none" xmlns="http://www.w3.org/2000/svg">
<g id="Frame">
<path id="Vector" d="M8 9.99987L6 7.99987M8 9.99987C8.9312 9.64567 9.8246 9.199 10.6667 8.66653M8 9.99987V13.3332C8 13.3332 10.02 12.9665 10.6667 11.9999C11.3867 10.9199 10.6667 8.66653 10.6667 8.66653M6 7.99987C6.35476 7.07947 6.80147 6.19721 7.33333 5.36651C8.11013 4.1245 9.19173 3.10187 10.4753 2.3959C11.7589 1.68993 13.2018 1.32409 14.6667 1.33317C14.6667 3.14651 14.1467 6.33317 10.6667 8.66653M6 7.99987H2.66667C2.66667 7.99987 3.03333 5.97984 4 5.33317C5.08 4.61317 7.33333 5.33317 7.33333 5.33317M3 10.9999C2 11.8399 1.66667 14.3332 1.66667 14.3332C1.66667 14.3332 4.16 13.9999 5 12.9999C5.47333 12.4399 5.46667 11.5799 4.94 11.0599C4.68087 10.8125 4.33953 10.6696 3.98149 10.6585C3.62344 10.6475 3.27392 10.769 3 10.9999Z" stroke="var(--stroke-0, white)" stroke-width="1.2" stroke-linecap="round" stroke-linejoin="round"/>
</g>
</svg>
