<svg preserveAspectRatio="none" width="100%" height="100%" overflow="visible" style="display: block;" viewBox="0 0 231 165" fill="none" xmlns="http://www.w3.org/2000/svg">
<g id="Circle">
<g id="Ellipse 27" filter="url(#filter0_n_261_1281)">
<circle cx="115.469" cy="82.5" r="82.5" fill="url(#paint0_linear_261_1281)"/>
<circle cx="115.469" cy="82.5" r="82" stroke="var(--stroke-0, white)"/>
</g>
<ellipse id="Ellipse 10" cx="115.469" cy="83" rx="111.318" ry="31" transform="rotate(-13.3611 115.469 83)" stroke="var(--stroke-0, white)"/>
<g id="Ellipse 26" filter="url(#filter1_dn_261_1281)">
<circle cx="115.969" cy="83" r="46" fill="url(#paint1_radial_261_1281)"/>
</g>
<path id="Ellipse 28" d="M223.774 57.2758C227.73 73.9332 182.448 98.9538 122.633 113.161C62.8173 127.368 11.1201 125.382 7.16372 108.724" stroke="var(--stroke-0, white)"/>
<g id="Union">
<mask id="path-6-outside-1_261_1281" maskUnits="userSpaceOnUse" x="167.842" y="58.2431" width="19" height="19" fill="black">
<rect fill="white" x="167.842" y="58.2431" width="19" height="19"/>
<path d="M177.566 59.2431C177.643 59.2431 177.703 63.0562 177.705 67.7948C180.041 65.462 181.933 63.6327 181.981 63.6601C182.01 63.7063 180.233 65.5392 177.951 67.8271C182.582 67.8303 186.276 67.8915 186.291 67.9667C186.291 68.0433 182.475 68.1039 177.734 68.1054C180.121 70.4938 182.01 72.4457 181.981 72.494C181.933 72.5215 180.042 70.6908 177.705 68.3573C177.701 72.9945 177.641 76.6913 177.566 76.6913C177.491 76.6758 177.43 72.9826 177.426 68.3534C175.087 70.6899 173.193 72.5239 173.147 72.494C173.12 72.4445 175.008 70.4927 177.393 68.1054C172.655 68.1039 168.842 68.0432 168.842 67.9667C168.857 67.8915 172.548 67.8303 177.176 67.8271C174.895 65.5405 173.12 63.7078 173.147 63.6601C173.194 63.6306 175.087 65.463 177.426 67.7987C177.428 63.068 177.49 59.2586 177.566 59.2431Z"/>
</mask>
<path d="M177.566 59.2431C177.643 59.2431 177.703 63.0562 177.705 67.7948C180.041 65.462 181.933 63.6327 181.981 63.6601C182.01 63.7063 180.233 65.5392 177.951 67.8271C182.582 67.8303 186.276 67.8915 186.291 67.9667C186.291 68.0433 182.475 68.1039 177.734 68.1054C180.121 70.4938 182.01 72.4457 181.981 72.494C181.933 72.5215 180.042 70.6908 177.705 68.3573C177.701 72.9945 177.641 76.6913 177.566 76.6913C177.491 76.6758 177.43 72.9826 177.426 68.3534C175.087 70.6899 173.193 72.5239 173.147 72.494C173.12 72.4445 175.008 70.4927 177.393 68.1054C172.655 68.1039 168.842 68.0432 168.842 67.9667C168.857 67.8915 172.548 67.8303 177.176 67.8271C174.895 65.5405 173.12 63.7078 173.147 63.6601C173.194 63.6306 175.087 65.463 177.426 67.7987C177.428 63.068 177.49 59.2586 177.566 59.2431Z" fill="var(--fill-0, white)"/>
<path d="M177.566 59.2431V59.0431H177.546L177.526 59.0471L177.566 59.2431ZM177.705 67.7948L177.505 67.7949L177.505 68.277L177.846 67.9364L177.705 67.7948ZM181.981 63.6601L182.151 63.555L182.124 63.5112L182.079 63.4859L181.981 63.6601ZM177.951 67.8271L177.809 67.6858L177.469 68.0267L177.951 68.0271L177.951 67.8271ZM186.291 67.9667H186.491V67.948L186.487 67.9296L186.291 67.9667ZM177.734 68.1054L177.734 67.9054L177.252 67.9055L177.593 68.2467L177.734 68.1054ZM181.981 72.494L182.08 72.668L182.126 72.6418L182.153 72.5963L181.981 72.494ZM177.705 68.3573L177.846 68.2158L177.505 67.8753L177.505 68.3572L177.705 68.3573ZM177.566 76.6913L177.526 76.8872L177.546 76.8913H177.566V76.6913ZM177.426 68.3534L177.626 68.3533L177.626 67.8714L177.285 68.2119L177.426 68.3534ZM173.147 72.494L172.972 72.591L172.996 72.6348L173.038 72.6619L173.147 72.494ZM177.393 68.1054L177.535 68.2467L177.876 67.9055L177.393 67.9054L177.393 68.1054ZM168.842 67.9667L168.646 67.9292L168.642 67.9478V67.9667H168.842ZM177.176 67.8271L177.177 68.0271L177.658 68.0267L177.318 67.6858L177.176 67.8271ZM173.147 63.6601L173.04 63.4912L172.998 63.518L172.973 63.5617L173.147 63.6601ZM177.426 67.7987L177.285 67.9403L177.626 68.2809L177.626 67.7988L177.426 67.7987ZM177.566 59.2431V59.4431C177.458 59.4431 177.407 59.3621 177.401 59.3539C177.389 59.334 177.383 59.3175 177.383 59.3152C177.38 59.3078 177.381 59.3067 177.383 59.3186C177.386 59.3396 177.39 59.3764 177.395 59.432C177.403 59.5413 177.412 59.7054 177.42 59.9205C177.436 60.3499 177.451 60.9728 177.464 61.7452C177.488 63.2894 177.504 65.4263 177.505 67.7949L177.705 67.7948L177.905 67.7948C177.904 65.4248 177.888 63.2857 177.864 61.7387C177.851 60.9655 177.836 60.339 177.82 59.9053C177.811 59.6889 177.803 59.5181 177.793 59.4004C177.789 59.3424 177.784 59.2927 177.778 59.2555C177.775 59.2383 177.771 59.2152 177.764 59.1931C177.761 59.1834 177.753 59.1614 177.738 59.1378C177.73 59.1259 177.677 59.0431 177.566 59.0431V59.2431ZM177.705 67.7948L177.846 67.9364C179.014 66.7704 180.07 65.7307 180.84 64.9861C181.225 64.6137 181.538 64.3159 181.757 64.1133C181.867 64.0118 181.951 63.9356 182.009 63.8864C182.038 63.8612 182.058 63.8458 182.069 63.8379C182.075 63.8334 182.073 63.8352 182.066 63.839C182.063 63.8405 182.051 63.8471 182.033 63.8524C182.027 63.854 181.958 63.8764 181.883 63.8342L181.981 63.6601L182.079 63.4859C182.003 63.4429 181.931 63.4654 181.922 63.4679C181.901 63.4741 181.884 63.4826 181.876 63.4868C181.859 63.496 181.844 63.5069 181.833 63.5148C181.81 63.5318 181.781 63.5552 181.749 63.582C181.685 63.6366 181.596 63.7172 181.485 63.8197C181.263 64.0253 180.948 64.3255 180.562 64.6986C179.79 65.445 178.732 66.4864 177.563 67.6533L177.705 67.7948ZM181.981 63.6601L181.811 63.7651C181.765 63.6901 181.786 63.618 181.788 63.6113C181.793 63.592 181.8 63.5789 181.802 63.5759C181.806 63.5683 181.808 63.5659 181.804 63.5718C181.796 63.5819 181.782 63.6003 181.758 63.6288C181.71 63.6846 181.636 63.7665 181.538 63.8731C181.341 64.0855 181.052 64.3892 180.689 64.7639C179.964 65.5129 178.95 66.5423 177.809 67.6858L177.951 67.8271L178.092 67.9683C179.234 66.824 180.25 65.793 180.976 65.042C181.34 64.6667 181.631 64.3605 181.831 64.1448C181.931 64.0372 182.009 63.9505 182.062 63.8883C182.088 63.8577 182.111 63.8298 182.127 63.8069C182.135 63.7963 182.146 63.7807 182.155 63.7632C182.159 63.7553 182.168 63.7382 182.174 63.7158C182.177 63.7059 182.198 63.6315 182.151 63.555L181.981 63.6601ZM177.951 67.8271L177.951 68.0271C180.265 68.0287 182.346 68.0448 183.849 68.0699C184.6 68.0824 185.207 68.0972 185.625 68.1135C185.835 68.1216 185.995 68.1301 186.102 68.1386C186.157 68.1429 186.193 68.147 186.214 68.1503C186.226 68.1522 186.226 68.1528 186.22 68.1509C186.218 68.1502 186.204 68.1461 186.187 68.1361C186.182 68.1331 186.111 68.095 186.094 68.0038L186.291 67.9667L186.487 67.9296C186.47 67.836 186.397 67.7957 186.388 67.7903C186.367 67.7779 186.347 67.7715 186.337 67.7685C186.316 67.762 186.294 67.758 186.277 67.7552C186.24 67.7494 186.191 67.7444 186.134 67.7399C186.018 67.7307 185.852 67.722 185.641 67.7138C185.218 67.6973 184.608 67.6825 183.855 67.6699C182.35 67.6448 180.267 67.6287 177.951 67.6271L177.951 67.8271ZM186.291 67.9667H186.091C186.091 67.8581 186.172 67.8072 186.18 67.8019C186.2 67.7892 186.216 67.7841 186.219 67.7834C186.226 67.781 186.227 67.7815 186.215 67.7834C186.194 67.7867 186.157 67.7908 186.102 67.7952C185.992 67.8039 185.828 67.8124 185.613 67.8206C185.183 67.837 184.56 67.8518 183.787 67.8642C182.242 67.8891 180.104 67.9047 177.734 67.9054L177.734 68.1054L177.734 68.3054C180.105 68.3047 182.245 68.2891 183.793 68.2642C184.567 68.2517 185.194 68.2369 185.628 68.2203C185.845 68.2121 186.015 68.2033 186.133 68.194C186.191 68.1894 186.241 68.1843 186.278 68.1784C186.295 68.1756 186.318 68.1714 186.341 68.1643C186.35 68.1612 186.372 68.1537 186.396 68.1386C186.408 68.131 186.491 68.0777 186.491 67.9667H186.291ZM177.734 68.1054L177.593 68.2467C178.785 69.4405 179.854 70.5248 180.62 71.3163C181.003 71.7123 181.31 72.0342 181.519 72.2597C181.623 72.3728 181.702 72.4599 181.753 72.5195C181.779 72.5498 181.795 72.5699 181.803 72.5812C181.808 72.5877 181.806 72.586 181.802 72.5791C181.801 72.5765 181.794 72.564 181.789 72.5455C181.787 72.5406 181.764 72.4681 181.809 72.3917L181.981 72.494L182.153 72.5963C182.199 72.5185 182.176 72.4436 182.173 72.4353C182.167 72.4134 182.158 72.3967 182.154 72.3888C182.145 72.3716 182.134 72.3559 182.126 72.3449C182.108 72.3211 182.084 72.2919 182.057 72.2596C182.001 72.1938 181.918 72.1019 181.812 71.9879C181.6 71.7592 181.291 71.4348 180.907 71.0382C180.139 70.2446 179.069 69.1587 177.875 67.964L177.734 68.1054ZM181.981 72.494L181.882 72.3201C181.957 72.2776 182.027 72.3001 182.033 72.3017C182.051 72.307 182.063 72.3136 182.066 72.3151C182.073 72.3189 182.075 72.3208 182.069 72.3162C182.058 72.3083 182.039 72.2929 182.009 72.2678C181.951 72.2185 181.867 72.1423 181.757 72.0407C181.538 71.8379 181.225 71.5399 180.84 71.1673C180.07 70.4223 179.014 69.382 177.846 68.2158L177.705 68.3573L177.563 68.4989C178.732 69.666 179.79 70.7079 180.562 71.4548C180.948 71.8281 181.263 72.1284 181.485 72.3342C181.596 72.4368 181.685 72.5173 181.749 72.572C181.781 72.5989 181.809 72.6222 181.833 72.6393C181.844 72.6472 181.859 72.6581 181.876 72.6673C181.884 72.6715 181.901 72.68 181.922 72.6862C181.931 72.6888 182.003 72.7113 182.08 72.668L181.981 72.494ZM177.705 68.3573L177.505 68.3572C177.503 70.6751 177.487 72.7575 177.462 74.2599C177.45 75.0114 177.435 75.6167 177.419 76.0335C177.411 76.2423 177.403 76.4015 177.394 76.5074C177.39 76.5612 177.386 76.5966 177.383 76.6166C177.381 76.628 177.38 76.6265 177.383 76.6186C177.384 76.6161 177.389 76.5994 177.402 76.5794C177.408 76.5702 177.459 76.4913 177.566 76.4913V76.6913V76.8913C177.675 76.8913 177.729 76.8106 177.737 76.7978C177.752 76.7743 177.76 76.7521 177.763 76.7425C177.77 76.7204 177.775 76.6975 177.777 76.6807C177.783 76.6443 177.788 76.5958 177.793 76.5394C177.802 76.425 177.811 76.2592 177.819 76.049C177.835 75.6277 177.85 75.0189 177.862 74.2666C177.887 72.7613 177.903 70.6767 177.905 68.3575L177.705 68.3573ZM177.566 76.6913L177.607 76.4954C177.696 76.5139 177.733 76.5831 177.736 76.5881C177.746 76.6051 177.75 76.6186 177.75 76.6207C177.752 76.6267 177.752 76.6266 177.75 76.6148C177.746 76.5936 177.742 76.557 177.738 76.5026C177.729 76.3952 177.721 76.2349 177.713 76.0252C177.697 75.6066 177.682 75.0006 177.669 74.2492C177.644 72.7467 177.628 70.6672 177.626 68.3533L177.426 68.3534L177.226 68.3536C177.228 70.6689 177.244 72.7506 177.269 74.2558C177.282 75.0082 177.297 75.6177 177.313 76.0407C177.321 76.2518 177.33 76.4187 177.339 76.5343C177.344 76.5914 177.349 76.6403 177.355 76.6771C177.357 76.6944 177.361 76.7165 177.368 76.7377C177.371 76.7473 177.377 76.7667 177.389 76.7877C177.394 76.7967 177.434 76.8682 177.526 76.8872L177.566 76.6913ZM177.426 68.3534L177.285 68.2119C176.116 69.3797 175.058 70.4215 174.287 71.1674C173.902 71.5405 173.589 71.8388 173.37 72.0415C173.26 72.1432 173.176 72.2193 173.118 72.2684C173.089 72.2935 173.07 72.3088 173.059 72.3165C173.053 72.321 173.055 72.3189 173.063 72.3149C173.066 72.3134 173.079 72.3063 173.098 72.3011C173.104 72.2994 173.179 72.2767 173.256 72.3261L173.147 72.494L173.038 72.6619C173.116 72.7124 173.194 72.6897 173.203 72.6871C173.226 72.681 173.243 72.6722 173.251 72.668C173.268 72.6586 173.284 72.6476 173.295 72.6398C173.318 72.6228 173.347 72.5994 173.378 72.5727C173.442 72.5181 173.531 72.4376 173.642 72.335C173.864 72.1292 174.18 71.8285 174.566 71.4548C175.338 70.707 176.397 69.6636 177.568 68.4949L177.426 68.3534ZM173.147 72.494L173.322 72.3971C173.364 72.4724 173.34 72.5422 173.339 72.5469C173.334 72.5648 173.327 72.5769 173.326 72.5794C173.322 72.5861 173.321 72.5876 173.325 72.581C173.334 72.5696 173.35 72.5495 173.376 72.5191C173.427 72.4594 173.506 72.3721 173.61 72.259C173.819 72.0334 174.126 71.7114 174.509 71.3154C175.275 70.5239 176.342 69.4399 177.535 68.2467L177.393 68.1054L177.252 67.964C176.058 69.1582 174.989 70.2438 174.221 71.0373C173.838 71.4339 173.529 71.7584 173.317 71.9872C173.211 72.1014 173.128 72.1933 173.072 72.2592C173.044 72.2916 173.02 72.3208 173.003 72.3446C172.995 72.3556 172.984 72.3712 172.974 72.3883C172.97 72.3961 172.962 72.4125 172.955 72.4338C172.953 72.4419 172.93 72.5141 172.972 72.591L173.147 72.494ZM177.393 68.1054L177.393 67.9054C175.025 67.9046 172.888 67.8891 171.344 67.8642C170.572 67.8518 169.949 67.837 169.52 67.8206C169.305 67.8124 169.141 67.8039 169.031 67.7952C168.976 67.7908 168.939 67.7867 168.918 67.7834C168.906 67.7815 168.907 67.781 168.915 67.7834C168.917 67.7841 168.933 67.7892 168.953 67.802C168.961 67.8073 169.042 67.8582 169.042 67.9667H168.842H168.642C168.642 68.0776 168.725 68.1309 168.737 68.1386C168.761 68.1537 168.783 68.1612 168.792 68.1643C168.815 68.1714 168.838 68.1756 168.855 68.1783C168.892 68.1843 168.942 68.1894 169 68.1939C169.117 68.2033 169.288 68.212 169.505 68.2203C169.938 68.2369 170.565 68.2517 171.338 68.2642C172.885 68.2891 175.023 68.3046 177.393 68.3054L177.393 68.1054ZM168.842 67.9667L169.039 68.0042C169.022 68.0951 168.951 68.1331 168.946 68.1361C168.929 68.1461 168.915 68.1502 168.913 68.1509C168.907 68.1528 168.907 68.1522 168.919 68.1503C168.94 68.147 168.976 68.143 169.031 68.1386C169.138 68.1301 169.298 68.1216 169.508 68.1135C169.926 68.0972 170.531 68.0824 171.283 68.0699C172.784 68.0448 174.863 68.0287 177.177 68.0271L177.176 67.8271L177.176 67.6271C174.862 67.6287 172.78 67.6448 171.276 67.6699C170.524 67.6825 169.915 67.6973 169.492 67.7138C169.281 67.722 169.114 67.7307 168.999 67.7399C168.942 67.7444 168.893 67.7494 168.856 67.7552C168.839 67.758 168.817 67.762 168.796 67.7685C168.786 67.7715 168.767 67.7779 168.745 67.7903C168.736 67.7956 168.664 67.8359 168.646 67.9292L168.842 67.9667ZM177.176 67.8271L177.318 67.6858C176.178 66.543 175.164 65.5139 174.44 64.765C174.077 64.3903 173.788 64.0865 173.591 63.8739C173.493 63.7673 173.419 63.6853 173.371 63.6293C173.347 63.6008 173.332 63.5822 173.325 63.572C173.32 63.566 173.322 63.5682 173.326 63.5755C173.328 63.5784 173.334 63.5909 173.34 63.6094C173.341 63.6157 173.363 63.6845 173.321 63.7584L173.147 63.6601L172.973 63.5617C172.93 63.6371 172.952 63.7083 172.955 63.7178C172.961 63.7395 172.969 63.7561 172.973 63.764C172.983 63.7812 172.993 63.7966 173.001 63.8072C173.018 63.8302 173.041 63.8582 173.067 63.8888C173.12 63.9511 173.198 64.0379 173.298 64.1456C173.497 64.3615 173.789 64.6678 174.152 65.0431C174.879 65.794 175.894 66.8246 177.035 67.9683L177.176 67.8271ZM173.147 63.6601L173.254 63.829C173.178 63.8773 173.104 63.8546 173.098 63.853C173.079 63.8477 173.066 63.8407 173.063 63.8392C173.055 63.8352 173.053 63.8332 173.059 63.8377C173.07 63.8454 173.089 63.8607 173.119 63.8858C173.176 63.935 173.261 64.011 173.371 64.1126C173.59 64.3153 173.902 64.6133 174.288 64.9862C175.059 65.7316 176.116 66.7729 177.285 67.9403L177.426 67.7987L177.568 67.6572C176.398 66.4889 175.339 65.446 174.566 64.6987C174.18 64.3252 173.864 64.0247 173.642 63.819C173.531 63.7165 173.442 63.636 173.378 63.5815C173.347 63.5547 173.318 63.5313 173.295 63.5143C173.284 63.5065 173.268 63.4955 173.251 63.4862C173.243 63.482 173.226 63.4733 173.203 63.4671C173.194 63.4646 173.118 63.4419 173.04 63.4912L173.147 63.6601ZM177.426 67.7987L177.626 67.7988C177.627 65.4341 177.643 63.3002 177.668 61.7559C177.681 60.9836 177.696 60.3599 177.712 59.9288C177.72 59.7129 177.729 59.5475 177.738 59.4367C177.742 59.3806 177.746 59.3427 177.75 59.3204C177.751 59.3082 177.752 59.3077 177.75 59.3133C177.75 59.3152 177.746 59.3286 177.736 59.3455C177.734 59.3497 177.697 59.4206 177.606 59.4391L177.566 59.2431L177.526 59.0471C177.433 59.066 177.393 59.1392 177.389 59.1477C177.377 59.1687 177.37 59.1881 177.367 59.1978C177.361 59.219 177.357 59.2414 177.354 59.259C177.348 59.2966 177.343 59.3468 177.339 59.4055C177.329 59.5245 177.321 59.6962 177.312 59.9135C177.296 60.349 177.281 60.9761 177.268 61.7494C177.243 63.2964 177.227 65.4326 177.226 67.7987L177.426 67.7987Z" fill="var(--stroke-0, white)" mask="url(#path-6-outside-1_261_1281)"/>
</g>
<g id="Union_2">
<mask id="path-8-outside-2_261_1281" maskUnits="userSpaceOnUse" x="43.307" y="87.8223" width="19" height="19" fill="black">
<rect fill="white" x="43.307" y="87.8223" width="19" height="19"/>
<path d="M53.0307 88.8223C53.1072 88.8223 53.1679 92.6354 53.1693 97.374C55.5057 95.0412 57.3972 93.2119 57.4457 93.2393C57.4742 93.2855 55.6981 95.1185 53.4154 97.4063C58.0464 97.4095 61.7411 97.4707 61.7553 97.5459C61.7553 97.6225 57.9395 97.6832 53.1986 97.6846C55.5854 100.073 57.4745 102.025 57.4457 102.073C57.3973 102.101 55.5062 100.27 53.1693 97.9365C53.1661 102.574 53.106 106.271 53.0307 106.271C52.9555 106.255 52.8943 102.562 52.891 97.9326C50.5511 100.269 48.6578 102.103 48.6117 102.073C48.5842 102.024 50.4721 100.072 52.8578 97.6846C48.1196 97.6831 44.307 97.6225 44.307 97.5459C44.3214 97.4708 48.0129 97.4095 52.641 97.4063C50.3596 95.1197 48.5848 93.287 48.6117 93.2393C48.6582 93.2098 50.5518 95.0422 52.891 97.378C52.8925 92.6472 52.9543 88.8378 53.0307 88.8223Z"/>
</mask>
<path d="M53.0307 88.8223C53.1072 88.8223 53.1679 92.6354 53.1693 97.374C55.5057 95.0412 57.3972 93.2119 57.4457 93.2393C57.4742 93.2855 55.6981 95.1185 53.4154 97.4063C58.0464 97.4095 61.7411 97.4707 61.7553 97.5459C61.7553 97.6225 57.9395 97.6832 53.1986 97.6846C55.5854 100.073 57.4745 102.025 57.4457 102.073C57.3973 102.101 55.5062 100.27 53.1693 97.9365C53.1661 102.574 53.106 106.271 53.0307 106.271C52.9555 106.255 52.8943 102.562 52.891 97.9326C50.5511 100.269 48.6578 102.103 48.6117 102.073C48.5842 102.024 50.4721 100.072 52.8578 97.6846C48.1196 97.6831 44.307 97.6225 44.307 97.5459C44.3214 97.4708 48.0129 97.4095 52.641 97.4063C50.3596 95.1197 48.5848 93.287 48.6117 93.2393C48.6582 93.2098 50.5518 95.0422 52.891 97.378C52.8925 92.6472 52.9543 88.8378 53.0307 88.8223Z" fill="var(--fill-0, white)"/>
<path d="M53.0307 88.8223V88.6223H53.0105L52.9908 88.6263L53.0307 88.8223ZM53.1693 97.374L52.9693 97.3741L52.9695 97.8562L53.3106 97.5156L53.1693 97.374ZM57.4457 93.2393L57.6159 93.1342L57.5888 93.0904L57.544 93.0651L57.4457 93.2393ZM53.4154 97.4063L53.2738 97.265L52.9337 97.6059L53.4153 97.6063L53.4154 97.4063ZM61.7553 97.5459H61.9553V97.5272L61.9518 97.5088L61.7553 97.5459ZM53.1986 97.6846L53.1986 97.4846L52.7162 97.4847L53.0572 97.826L53.1986 97.6846ZM57.4457 102.073L57.5444 102.247L57.5905 102.221L57.6176 102.176L57.4457 102.073ZM53.1693 97.9365L53.3107 97.795L52.9697 97.4545L52.9693 97.9364L53.1693 97.9365ZM53.0307 106.271L52.9902 106.466L53.0102 106.471H53.0307V106.271ZM52.891 97.9326L53.091 97.9325L53.0907 97.4506L52.7497 97.7911L52.891 97.9326ZM48.6117 102.073L48.4368 102.17L48.4611 102.214L48.503 102.241L48.6117 102.073ZM52.8578 97.6846L52.9993 97.826L53.3403 97.4847L52.8579 97.4846L52.8578 97.6846ZM44.307 97.5459L44.1106 97.5085L44.107 97.527V97.5459H44.307ZM52.641 97.4063L52.6412 97.6063L53.1228 97.6059L52.7826 97.265L52.641 97.4063ZM48.6117 93.2393L48.5046 93.0704L48.4622 93.0972L48.4376 93.141L48.6117 93.2393ZM52.891 97.378L52.7497 97.5195L53.0909 97.8601L53.091 97.378L52.891 97.378ZM53.0307 88.8223V89.0223C52.9221 89.0223 52.8712 88.9413 52.8659 88.9331C52.8532 88.9133 52.8481 88.8967 52.8473 88.8944C52.845 88.887 52.8454 88.8859 52.8473 88.8978C52.8507 88.9188 52.8548 88.9557 52.8592 89.0112C52.8678 89.1205 52.8763 89.2847 52.8846 89.4998C52.9009 89.9291 52.9157 90.5521 52.9282 91.3244C52.9531 92.8687 52.9686 95.0055 52.9693 97.3741L53.1693 97.374L53.3693 97.374C53.3686 95.004 53.3531 92.8649 53.3281 91.318C53.3157 90.5447 53.3008 89.9182 53.2843 89.4845C53.276 89.2681 53.2672 89.0973 53.2579 88.9796C53.2533 88.9216 53.2483 88.8719 53.2423 88.8347C53.2396 88.8175 53.2353 88.7945 53.2282 88.7723C53.2251 88.7627 53.2177 88.7406 53.2026 88.717C53.1949 88.7051 53.1416 88.6223 53.0307 88.6223V88.8223ZM53.1693 97.374L53.3106 97.5156C54.4784 96.3496 55.5345 95.3099 56.3045 94.5653C56.6897 94.1929 57.0024 93.8951 57.2214 93.6926C57.3312 93.591 57.4159 93.5149 57.4736 93.4656C57.5031 93.4405 57.5224 93.425 57.5332 93.4172C57.5395 93.4126 57.5376 93.4144 57.5306 93.4182C57.5278 93.4197 57.5155 93.4264 57.4972 93.4316C57.4917 93.4332 57.4221 93.4556 57.3474 93.4134L57.4457 93.2393L57.544 93.0651C57.4678 93.0221 57.3958 93.0446 57.387 93.0471C57.3654 93.0533 57.3489 93.0618 57.341 93.066C57.3238 93.0752 57.3083 93.0861 57.2975 93.094C57.2741 93.111 57.2456 93.1344 57.2141 93.1612C57.15 93.2159 57.0606 93.2964 56.9498 93.3989C56.7275 93.6045 56.4123 93.9047 56.0265 94.2778C55.2545 95.0243 54.1967 96.0656 53.028 97.2325L53.1693 97.374ZM57.4457 93.2393L57.2755 93.3444C57.2292 93.2693 57.2508 93.1972 57.2527 93.1905C57.2579 93.1712 57.2648 93.1582 57.2664 93.1551C57.2705 93.1475 57.2727 93.1451 57.2684 93.151C57.2611 93.1611 57.2464 93.1795 57.2221 93.208C57.1746 93.2638 57.1008 93.3457 57.0022 93.4523C56.8056 93.6647 56.5161 93.9684 56.1535 94.3431C55.4287 95.0921 54.4147 96.1215 53.2738 97.265L53.4154 97.4063L53.557 97.5475C54.6988 96.4032 55.7142 95.3722 56.441 94.6213C56.8042 94.2459 57.0961 93.9397 57.2958 93.724C57.3953 93.6165 57.4735 93.5297 57.5266 93.4675C57.5526 93.437 57.5754 93.409 57.592 93.3861C57.5997 93.3755 57.6106 93.3599 57.6198 93.3425C57.624 93.3346 57.6327 93.3175 57.6388 93.295C57.6415 93.2851 57.6631 93.2107 57.6159 93.1342L57.4457 93.2393ZM53.4154 97.4063L53.4153 97.6063C55.7301 97.6079 57.8104 97.624 59.3133 97.6491C60.065 97.6616 60.6711 97.6764 61.0896 97.6927C61.2993 97.7008 61.4596 97.7093 61.5669 97.7178C61.6213 97.7222 61.6578 97.7262 61.6789 97.7295C61.6907 97.7314 61.6906 97.732 61.6845 97.7301C61.6824 97.7294 61.6686 97.7253 61.6514 97.7153C61.6462 97.7123 61.576 97.6742 61.5588 97.5831L61.7553 97.5459L61.9518 97.5088C61.9341 97.4152 61.8617 97.3749 61.8524 97.3695C61.8312 97.3572 61.8117 97.3507 61.802 97.3477C61.7808 97.3412 61.7586 97.3372 61.7414 97.3344C61.7046 97.3286 61.6557 97.3236 61.5987 97.3191C61.4831 97.3099 61.3162 97.3012 61.1052 97.293C60.6822 97.2765 60.0726 97.2617 59.32 97.2491C57.8143 97.224 55.7317 97.2079 53.4156 97.2063L53.4154 97.4063ZM61.7553 97.5459H61.5553C61.5553 97.4373 61.6363 97.3864 61.6445 97.3812C61.6643 97.3684 61.6808 97.3633 61.6831 97.3626C61.6906 97.3602 61.6916 97.3607 61.6797 97.3626C61.6587 97.3659 61.6218 97.37 61.5663 97.3744C61.4569 97.3831 61.2926 97.3916 61.0774 97.3998C60.6478 97.4162 60.0244 97.431 59.2516 97.4435C57.7064 97.4684 55.5683 97.4839 53.1986 97.4846L53.1986 97.6846L53.1987 97.8846C55.5698 97.8839 57.7101 97.8683 59.258 97.8434C60.0317 97.8309 60.6586 97.8161 61.0926 97.7995C61.3092 97.7913 61.48 97.7825 61.5978 97.7732C61.6559 97.7686 61.7056 97.7635 61.7428 97.7576C61.76 97.7548 61.7831 97.7506 61.8052 97.7435C61.8149 97.7404 61.8369 97.7329 61.8605 97.7178C61.8724 97.7102 61.9553 97.6569 61.9553 97.5459H61.7553ZM53.1986 97.6846L53.0572 97.826C54.25 99.0197 55.3182 100.104 56.0843 100.896C56.4674 101.291 56.7743 101.613 56.9831 101.839C57.0879 101.952 57.1664 102.039 57.2173 102.099C57.2433 102.129 57.2593 102.149 57.2676 102.16C57.2724 102.167 57.2706 102.165 57.2669 102.158C57.2655 102.156 57.2587 102.143 57.2534 102.125C57.252 102.12 57.2284 102.047 57.2738 101.971L57.4457 102.073L57.6176 102.176C57.6639 102.098 57.6403 102.023 57.6379 102.014C57.6316 101.993 57.623 101.976 57.6187 101.968C57.6094 101.951 57.5984 101.935 57.5903 101.924C57.5729 101.9 57.549 101.871 57.5214 101.839C57.4652 101.773 57.3822 101.681 57.2766 101.567C57.0648 101.338 56.7555 101.014 56.3717 100.617C55.6037 99.8238 54.534 98.7379 53.3401 97.5432L53.1986 97.6846ZM57.4457 102.073L57.347 101.899C57.4218 101.857 57.4916 101.879 57.4972 101.881C57.5155 101.886 57.5279 101.893 57.5306 101.894C57.5377 101.898 57.5396 101.9 57.5333 101.895C57.5225 101.888 57.5032 101.872 57.4737 101.847C57.416 101.798 57.3314 101.722 57.2216 101.62C57.0026 101.417 56.6899 101.119 56.3048 100.747C55.5348 100.002 54.4786 98.9613 53.3107 97.795L53.1693 97.9365L53.028 98.0781C54.1969 99.2453 55.2547 100.287 56.0266 101.034C56.4124 101.407 56.7276 101.708 56.9499 101.913C57.0607 102.016 57.15 102.097 57.2141 102.151C57.2455 102.178 57.2741 102.201 57.2974 102.219C57.3083 102.226 57.3238 102.237 57.341 102.247C57.3488 102.251 57.3654 102.259 57.387 102.265C57.3958 102.268 57.4681 102.291 57.5444 102.247L57.4457 102.073ZM53.1693 97.9365L52.9693 97.9364C52.9677 100.254 52.9519 102.337 52.9271 103.839C52.9147 104.591 52.9 105.196 52.8838 105.613C52.8757 105.822 52.8673 105.981 52.8588 106.087C52.8544 106.14 52.8504 106.176 52.8472 106.196C52.8453 106.207 52.845 106.206 52.8475 106.198C52.8483 106.195 52.8536 106.179 52.8666 106.159C52.8726 106.149 52.9236 106.071 53.0307 106.071V106.271V106.471C53.1401 106.471 53.1934 106.39 53.2017 106.377C53.2171 106.353 53.2247 106.331 53.2279 106.322C53.2351 106.3 53.2393 106.277 53.242 106.26C53.2479 106.224 53.2529 106.175 53.2575 106.119C53.2667 106.004 53.2753 105.838 53.2835 105.628C53.2999 105.207 53.3146 104.598 53.327 103.846C53.3519 102.341 53.3677 100.256 53.3693 97.9367L53.1693 97.9365ZM53.0307 106.271L53.0711 106.075C53.1606 106.093 53.1976 106.162 53.2005 106.167C53.2103 106.184 53.2143 106.198 53.2149 106.2C53.2167 106.206 53.2162 106.206 53.2143 106.194C53.211 106.173 53.2069 106.136 53.2026 106.082C53.194 105.974 53.1856 105.814 53.1774 105.604C53.1612 105.186 53.1464 104.58 53.1338 103.828C53.1087 102.326 53.0926 100.246 53.091 97.9325L52.891 97.9326L52.691 97.9328C52.6926 100.248 52.7088 102.33 52.7339 103.835C52.7465 104.587 52.7613 105.197 52.7777 105.62C52.7859 105.831 52.7946 105.998 52.8038 106.114C52.8084 106.171 52.8134 106.22 52.8192 106.256C52.8219 106.274 52.8259 106.296 52.8324 106.317C52.8354 106.327 52.8417 106.346 52.8538 106.367C52.859 106.376 52.8984 106.447 52.9902 106.466L53.0307 106.271ZM52.891 97.9326L52.7497 97.7911C51.5802 98.9589 50.5227 100.001 49.7521 100.747C49.3666 101.12 49.0538 101.418 48.8349 101.621C48.7251 101.722 48.6406 101.798 48.583 101.848C48.5536 101.873 48.5345 101.888 48.5239 101.896C48.5177 101.9 48.5199 101.898 48.5274 101.894C48.5303 101.893 48.5434 101.886 48.5629 101.88C48.5691 101.879 48.644 101.856 48.7204 101.905L48.6117 102.073L48.503 102.241C48.5809 102.292 48.6581 102.269 48.6676 102.266C48.6902 102.26 48.7075 102.251 48.7154 102.247C48.7329 102.238 48.7487 102.227 48.7594 102.219C48.7828 102.202 48.8113 102.179 48.8427 102.152C48.9066 102.097 48.9959 102.017 49.1067 101.914C49.3288 101.708 49.6442 101.408 50.0303 101.034C50.8029 100.286 51.8619 99.2429 53.0323 98.0742L52.891 97.9326ZM48.6117 102.073L48.7866 101.976C48.8284 102.052 48.805 102.121 48.8037 102.126C48.7984 102.144 48.7918 102.156 48.7904 102.159C48.7868 102.165 48.7852 102.167 48.79 102.16C48.7984 102.149 48.8145 102.129 48.8405 102.098C48.8915 102.039 48.9701 101.951 49.0748 101.838C49.2838 101.613 49.5905 101.291 49.9736 100.895C50.7394 100.103 51.807 99.0191 52.9993 97.826L52.8578 97.6846L52.7163 97.5432C51.523 98.7374 50.4538 99.823 49.6861 100.617C49.3024 101.013 48.9932 101.338 48.7813 101.566C48.6757 101.681 48.5927 101.773 48.5364 101.838C48.5087 101.871 48.4848 101.9 48.4674 101.924C48.4593 101.935 48.4483 101.95 48.439 101.968C48.4348 101.975 48.4263 101.992 48.42 102.013C48.4176 102.021 48.3942 102.093 48.4368 102.17L48.6117 102.073ZM52.8578 97.6846L52.8579 97.4846C50.4895 97.4839 48.3529 97.4683 46.8088 97.4434C46.0366 97.431 45.4137 97.4162 44.9844 97.3998C44.7693 97.3916 44.6052 97.3831 44.4959 97.3744C44.4404 97.37 44.4035 97.3659 44.3826 97.3626C44.3707 97.3607 44.3717 97.3602 44.3792 97.3626C44.3815 97.3633 44.398 97.3684 44.4178 97.3812C44.4261 97.3865 44.507 97.4374 44.507 97.5459H44.307H44.107C44.107 97.6568 44.1898 97.7101 44.2018 97.7178C44.2253 97.7329 44.2474 97.7404 44.257 97.7435C44.2792 97.7506 44.3023 97.7548 44.3194 97.7576C44.3566 97.7635 44.4063 97.7686 44.4643 97.7732C44.582 97.7825 44.7528 97.7913 44.9692 97.7995C45.4028 97.8161 46.0292 97.8309 46.8024 97.8434C48.3492 97.8683 50.488 97.8839 52.8577 97.8846L52.8578 97.6846ZM44.307 97.5459L44.5035 97.5834C44.4861 97.6744 44.4161 97.7123 44.4109 97.7153C44.3937 97.7253 44.3799 97.7294 44.3778 97.7301C44.3717 97.732 44.3716 97.7314 44.3834 97.7295C44.4045 97.7262 44.4409 97.7222 44.4953 97.7178C44.6025 97.7093 44.7627 97.7009 44.9722 97.6927C45.3904 97.6764 45.9961 97.6617 46.7472 97.6491C48.249 97.624 50.3278 97.6079 52.6412 97.6063L52.641 97.4063L52.6409 97.2063C50.3261 97.2079 48.2451 97.224 46.7405 97.2492C45.9884 97.2617 45.3793 97.2766 44.9567 97.293C44.7458 97.3012 44.579 97.3099 44.4635 97.3191C44.4065 97.3236 44.3577 97.3286 44.3209 97.3345C44.3037 97.3372 44.2815 97.3412 44.2603 97.3477C44.2506 97.3507 44.2311 97.3572 44.2099 97.3695C44.2007 97.3748 44.1284 97.4151 44.1106 97.5085L44.307 97.5459ZM52.641 97.4063L52.7826 97.265C51.6423 96.1222 50.629 95.0932 49.9045 94.3442C49.542 93.9695 49.2526 93.6658 49.0559 93.4531C48.9572 93.3465 48.8835 93.2645 48.8358 93.2085C48.8114 93.18 48.7967 93.1614 48.7892 93.1512C48.7849 93.1452 48.7869 93.1474 48.7908 93.1547C48.7924 93.1576 48.7991 93.1702 48.8043 93.1887C48.8061 93.1949 48.8276 93.2637 48.7859 93.3376L48.6117 93.2393L48.4376 93.141C48.395 93.2164 48.4166 93.2875 48.4192 93.297C48.4254 93.3187 48.4338 93.3353 48.438 93.3432C48.4472 93.3604 48.458 93.3758 48.4657 93.3865C48.4824 93.4094 48.5052 93.4374 48.5313 93.468C48.5844 93.5303 48.6627 93.6172 48.7623 93.7248C48.9621 93.9407 49.2539 94.247 49.617 94.6223C50.3435 95.3732 51.3583 96.4038 52.4994 97.5475L52.641 97.4063ZM48.6117 93.2393L48.7188 93.4082C48.6426 93.4565 48.5686 93.4338 48.5625 93.4322C48.5433 93.4269 48.5302 93.42 48.5274 93.4184C48.5199 93.4145 48.5178 93.4124 48.524 93.4169C48.5346 93.4247 48.5538 93.44 48.5832 93.465C48.6408 93.5142 48.7254 93.5902 48.8352 93.6918C49.0542 93.8945 49.3671 94.1926 49.7525 94.5654C50.5232 95.3108 51.5806 96.3521 52.7497 97.5195L52.891 97.378L53.0323 97.2364C51.8622 96.0681 50.8032 95.0253 50.0306 94.2779C49.6445 93.9044 49.3291 93.6039 49.1069 93.3983C48.996 93.2957 48.9067 93.2152 48.8428 93.1607C48.8114 93.1339 48.7828 93.1106 48.7595 93.0936C48.7487 93.0857 48.733 93.0747 48.7155 93.0654C48.7076 93.0612 48.6905 93.0525 48.668 93.0463C48.6586 93.0438 48.5823 93.0211 48.5046 93.0704L48.6117 93.2393ZM52.891 97.378L53.091 97.378C53.0917 95.0133 53.1076 92.8794 53.1327 91.3352C53.1453 90.5628 53.1602 89.9391 53.1767 89.508C53.1849 89.2921 53.1935 89.1268 53.2022 89.016C53.2066 88.9598 53.2107 88.9219 53.2142 88.8997C53.2161 88.8874 53.2167 88.8869 53.215 88.8926C53.2145 88.8944 53.2105 88.9078 53.2009 88.9247C53.1985 88.929 53.1614 88.9998 53.0705 89.0183L53.0307 88.8223L52.9908 88.6263C52.8975 88.6453 52.8581 88.7184 52.8533 88.7269C52.8413 88.7479 52.835 88.7673 52.8321 88.777C52.8257 88.7983 52.8216 88.8206 52.8189 88.8382C52.8131 88.8759 52.808 88.926 52.8034 88.9847C52.7941 89.1037 52.7853 89.2755 52.777 89.4928C52.7603 89.9282 52.7454 90.5554 52.7328 91.3286C52.7076 92.8757 52.6917 95.0118 52.691 97.3779L52.891 97.378Z" fill="var(--stroke-0, white)" mask="url(#path-8-outside-2_261_1281)"/>
</g>
<g id="search">
<path id="Vector" d="M124.301 91.3333L130.968 97.9999" stroke="var(--stroke-0, white)" stroke-width="1.5" stroke-linecap="round" stroke-linejoin="round"/>
<path id="Vector_2" d="M100.969 81.3333C100.969 88.6972 106.938 94.6667 114.302 94.6667C117.991 94.6667 121.329 93.1692 123.743 90.7488C126.148 88.337 127.636 85.0088 127.636 81.3333C127.636 73.9695 121.666 68 114.302 68C106.938 68 100.969 73.9695 100.969 81.3333Z" stroke="var(--stroke-0, white)" stroke-width="1.5" stroke-linecap="round" stroke-linejoin="round"/>
</g>
</g>
<defs>
<filter id="filter0_n_261_1281" x="32.9688" y="0" width="165" height="165" filterUnits="userSpaceOnUse" color-interpolation-filters="sRGB">
<feFlood flood-opacity="0" result="BackgroundImageFix"/>
<feBlend mode="normal" in="SourceGraphic" in2="BackgroundImageFix" result="shape"/>
<feTurbulence type="fractalNoise" baseFrequency="1.25 1.25" stitchTiles="stitch" numOctaves="3" result="noise" seed="3368" />
<feColorMatrix in="noise" type="luminanceToAlpha" result="alphaNoise" />
<feComponentTransfer in="alphaNoise" result="coloredNoise1">
<feFuncA type="discrete" tableValues="1 1 1 1 1 1 1 1 1 1 1 1 1 1 1 1 1 1 1 1 1 1 1 1 1 1 1 1 1 1 1 1 1 1 1 1 1 1 1 1 1 1 1 1 1 1 1 1 1 1 1 0 0 0 0 0 0 0 0 0 0 0 0 0 0 0 0 0 0 0 0 0 0 0 0 0 0 0 0 0 0 0 0 0 0 0 0 0 0 0 0 0 0 0 0 0 0 0 0 0 "/>
</feComponentTransfer>
<feComposite operator="in" in2="shape" in="coloredNoise1" result="noise1Clipped" />
<feComponentTransfer in="alphaNoise" result="coloredNoise2">
<feFuncA type="discrete" tableValues="0 0 0 0 0 0 0 0 0 0 0 0 0 0 0 0 0 0 0 0 0 0 0 0 0 0 0 0 0 0 0 0 0 0 0 0 0 0 0 0 0 0 0 0 0 0 0 0 0 1 1 1 1 1 1 1 1 1 1 1 1 1 1 1 1 1 1 1 1 1 1 1 1 1 1 1 1 1 1 1 1 1 1 1 1 1 1 1 1 1 1 1 1 1 1 1 1 1 1 1 "/>
</feComponentTransfer>
<feComposite operator="in" in2="shape" in="coloredNoise2" result="noise2Clipped" />
<feFlood flood-color="rgba(255, 255, 255, 0.5)" result="color1Flood" />
<feComposite operator="in" in2="noise1Clipped" in="color1Flood" result="color1" />
<feFlood flood-color="rgba(0, 0, 0, 0.05)" result="color2Flood" />
<feComposite operator="in" in2="noise2Clipped" in="color2Flood" result="color2" />
<feMerge result="effect1_noise_261_1281">
<feMergeNode in="shape" />
<feMergeNode in="color1" />
<feMergeNode in="color2" />
</feMerge>
</filter>
<filter id="filter1_dn_261_1281" x="59.9688" y="27" width="132" height="132" filterUnits="userSpaceOnUse" color-interpolation-filters="sRGB">
<feFlood flood-opacity="0" result="BackgroundImageFix"/>
<feColorMatrix in="SourceAlpha" type="matrix" values="0 0 0 0 0 0 0 0 0 0 0 0 0 0 0 0 0 0 127 0" result="hardAlpha"/>
<feOffset dx="10" dy="10"/>
<feGaussianBlur stdDeviation="10"/>
<feComposite in2="hardAlpha" operator="out"/>
<feColorMatrix type="matrix" values="0 0 0 0 0.683804 0 0 0 0 0.0240776 0 0 0 0 0 0 0 0 0.25 0"/>
<feBlend mode="multiply" in2="BackgroundImageFix" result="effect1_dropShadow_261_1281"/>
<feBlend mode="normal" in="SourceGraphic" in2="BackgroundImageFix" result="shape"/>
<feTurbulence type="fractalNoise" baseFrequency="2 2" stitchTiles="stitch" numOctaves="3" result="noise" seed="3368" />
<feColorMatrix in="noise" type="luminanceToAlpha" result="alphaNoise" />
<feComponentTransfer in="alphaNoise" result="coloredNoise1">
<feFuncA type="discrete" tableValues="1 1 1 1 1 1 1 1 1 1 1 1 1 1 1 1 1 1 1 1 1 1 1 1 1 1 1 1 1 1 1 1 1 1 1 1 1 1 1 1 1 1 1 1 1 1 1 1 1 1 1 0 0 0 0 0 0 0 0 0 0 0 0 0 0 0 0 0 0 0 0 0 0 0 0 0 0 0 0 0 0 0 0 0 0 0 0 0 0 0 0 0 0 0 0 0 0 0 0 0 "/>
</feComponentTransfer>
<feComposite operator="in" in2="shape" in="coloredNoise1" result="noise1Clipped" />
<feComponentTransfer in="alphaNoise" result="coloredNoise2">
<feFuncA type="discrete" tableValues="0 0 0 0 0 0 0 0 0 0 0 0 0 0 0 0 0 0 0 0 0 0 0 0 0 0 0 0 0 0 0 0 0 0 0 0 0 0 0 0 0 0 0 0 0 0 0 0 0 1 1 1 1 1 1 1 1 1 1 1 1 1 1 1 1 1 1 1 1 1 1 1 1 1 1 1 1 1 1 1 1 1 1 1 1 1 1 1 1 1 1 1 1 1 1 1 1 1 1 1 "/>
</feComponentTransfer>
<feComposite operator="in" in2="shape" in="coloredNoise2" result="noise2Clipped" />
<feFlood flood-color="rgba(255, 255, 255, 0.2)" result="color1Flood" />
<feComposite operator="in" in2="noise1Clipped" in="color1Flood" result="color1" />
<feFlood flood-color="rgba(0, 0, 0, 0.05)" result="color2Flood" />
<feComposite operator="in" in2="noise2Clipped" in="color2Flood" result="color2" />
<feMerge result="effect2_noise_261_1281">
<feMergeNode in="shape" />
<feMergeNode in="color1" />
<feMergeNode in="color2" />
</feMerge>
<feBlend mode="normal" in="effect2_noise_261_1281" in2="effect1_dropShadow_261_1281" result="effect2_noise_261_1281"/>
</filter>
<linearGradient id="paint0_linear_261_1281" x1="186.954" y1="-23" x2="33.4537" y2="173" gradientUnits="userSpaceOnUse">
<stop stop-color="white"/>
<stop offset="0.352771" stop-color="white" stop-opacity="0"/>
<stop offset="0.710292" stop-color="white" stop-opacity="0"/>
<stop offset="1" stop-color="white"/>
</linearGradient>
<radialGradient id="paint1_radial_261_1281" cx="0" cy="0" r="1" gradientUnits="userSpaceOnUse" gradientTransform="translate(162.454 37) rotate(140.389) scale(109.94)">
<stop stop-color="#16FF1D"/>
<stop offset="0.419022" stop-color="#78BEFF"/>
<stop offset="0.778044" stop-color="#E96652"/>
</radialGradient>
</defs>
</svg>
