<svg preserveAspectRatio="none" width="100%" height="100%" overflow="visible" style="display: block;" viewBox="0 0 14 16" fill="none" xmlns="http://www.w3.org/2000/svg">
<g id="icon">
<path id="Vector" d="M12.25 6.85714H1.75M9.33333 2.28571V4.57143M4.66667 2.28571V4.57143M4.55 13.7143H9.45C10.4301 13.7143 10.9201 13.7143 11.2945 13.5274C11.6238 13.3631 11.8915 13.1009 12.0592 12.7783C12.25 12.4115 12.25 11.9315 12.25 10.9714V6.17143C12.25 5.21134 12.25 4.73129 12.0592 4.36459C11.8915 4.04202 11.6238 3.77977 11.2945 3.61542C10.9201 3.42857 10.4301 3.42857 9.45 3.42857H4.55C3.56991 3.42857 3.07986 3.42857 2.70552 3.61542C2.37623 3.77977 2.10852 4.04202 1.94074 4.36459C1.75 4.73129 1.75 5.21134 1.75 6.17143V10.9714C1.75 11.9315 1.75 12.4115 1.94074 12.7783C2.10852 13.1009 2.37623 13.3631 2.70552 13.5274C3.07986 13.7143 3.56991 13.7143 4.55 13.7143Z" stroke="var(--stroke-0, white)" stroke-width="1.2" stroke-linecap="round" stroke-linejoin="round"/>
</g>
</svg>
