<svg preserveAspectRatio="none" width="100%" height="100%" overflow="visible" style="display: block;" viewBox="0 0 221 25" fill="none" xmlns="http://www.w3.org/2000/svg">
<g id="(temp, discard)">
<path d="M7.83606 0.810721C10.6966 0.810721 12.8723 1.80896 14.3633 3.80543C15.8543 5.8019 16.5998 8.71939 16.5998 12.5579C16.5998 16.4405 15.8599 19.3746 14.3799 21.36C12.911 23.3344 10.7297 24.3216 7.83606 24.3216H0V0.810721H7.83606ZM7.83606 5.17869H4.98658V19.9206H7.83606C9.12826 19.9206 10.0615 19.347 10.6358 18.1999C11.2212 17.0527 11.5139 15.1721 11.5139 12.5579C11.5139 10.1313 11.1991 8.29473 10.5696 7.04831C9.95107 5.8019 9.0399 5.17869 7.83606 5.17869Z" fill="var(--fill-0, #E96652)"/>
<path d="M31.6093 13.2032C31.5541 12.0119 31.2503 11.0909 30.6981 10.4401C30.1459 9.77829 29.4004 9.44739 28.4616 9.44739C27.5891 9.44739 26.8546 9.79484 26.2582 10.4897C25.6729 11.1846 25.3526 12.0891 25.2974 13.2032H31.6093ZM31.0626 19.4408H36.1651C35.4583 21.36 34.4809 22.7609 33.2328 23.6433C31.9959 24.5257 30.3668 24.9669 28.3457 24.9669C25.9269 24.9669 24.0052 24.0955 22.5804 22.3527C21.1557 20.61 20.4433 18.2274 20.4433 15.2052C20.4433 12.2049 21.1612 9.83344 22.597 8.09067C24.0438 6.34789 25.9987 5.47651 28.4616 5.47651C31.1012 5.47651 33.1169 6.33135 34.5085 8.04103C35.9001 9.75072 36.5959 12.227 36.5959 15.4699C36.5959 15.8118 36.5904 16.071 36.5793 16.2475C36.5793 16.413 36.5738 16.5619 36.5627 16.6942H25.198C25.3195 18.062 25.6784 19.1209 26.2748 19.8709C26.8712 20.621 27.6443 20.996 28.5942 20.996C29.1464 20.996 29.6323 20.8637 30.052 20.5989C30.4828 20.3232 30.8196 19.9371 31.0626 19.4408Z" fill="var(--fill-0, #E96652)"/>
<path d="M41.5328 0.810721H56.9067V5.27796H46.3868V9.96029H54.8358V14.4606H46.4199V24.3216H41.5328V0.810721Z" fill="var(--fill-0, #E96652)"/>
<path d="M67.6419 0H72.4297V4.5996H67.6419V0ZM77.6482 20.5658V24.3216H61.8436V20.5658H67.6419V10.5228H63.2352V6.73395H72.4297V20.5658H77.6482Z" fill="var(--fill-0, #E96652)"/>
<path d="M94.0559 9.06684C94.0559 7.59982 93.7798 6.48577 93.2276 5.72469C92.6864 4.95257 91.8967 4.56651 90.8585 4.56651C90.0744 4.56651 89.3565 4.8533 88.7049 5.42687C88.0532 5.98941 87.4734 6.83322 86.9654 7.95831C86.4131 9.17163 85.9713 10.5283 85.64 12.0285C85.3197 13.5175 85.1596 14.9184 85.1596 16.231C85.1596 17.6318 85.4302 18.7017 85.9713 19.4408C86.5125 20.1688 87.2967 20.5328 88.3238 20.5328C89.2074 20.5328 89.9915 20.2405 90.6763 19.6559C91.3611 19.0602 91.9906 18.1392 92.5649 16.8928H97.6509C96.8557 19.5069 95.6353 21.5144 93.9896 22.9153C92.344 24.3051 90.3781 25 88.0919 25C85.5185 25 83.5416 24.2169 82.161 22.6506C80.7915 21.0732 80.1067 18.8065 80.1067 15.8504C80.1067 13.8098 80.4049 11.7527 81.0013 9.67902C81.6088 7.60534 82.3985 5.86808 83.3704 4.46724C84.3312 3.08846 85.4743 2.03508 86.7997 1.30708C88.1361 0.568056 89.5829 0.198544 91.1402 0.198544C93.592 0.198544 95.4806 0.954114 96.806 2.46525C98.1313 3.9764 98.8437 6.17692 98.9431 9.06684H94.0559Z" fill="var(--fill-0, #E96652)"/>
<path d="M110.086 4.53342C108.926 4.53342 108.026 5.1842 107.385 6.48577C106.745 7.77631 106.425 9.61284 106.425 11.9954C106.425 14.9404 106.723 17.1024 107.319 18.4811C107.927 19.8489 108.876 20.5328 110.169 20.5328C111.384 20.5328 112.278 19.8985 112.852 18.63C113.438 17.3505 113.73 15.3486 113.73 12.6241C113.73 9.89962 113.427 7.87006 112.819 6.53541C112.223 5.20075 111.312 4.53342 110.086 4.53342ZM101.372 12.3263C101.372 8.56497 102.156 5.59784 103.724 3.42488C105.293 1.25193 107.413 0.165453 110.086 0.165453C112.803 0.165453 114.934 1.26848 116.481 3.47452C118.038 5.66953 118.816 8.69733 118.816 12.5579C118.816 16.4295 118.038 19.4683 116.481 21.6744C114.934 23.8694 112.803 24.9669 110.086 24.9669C107.347 24.9669 105.21 23.8584 103.675 21.6413C102.139 19.4242 101.372 16.3192 101.372 12.3263Z" fill="var(--fill-0, #E96652)"/>
<path d="M122.908 0.810721H126.802L133.892 15.5526V0.810721H138.133V24.3216H134.24L127.15 9.64593V24.3216H122.908V0.810721Z" fill="var(--fill-0, #E96652)"/>
<path d="M143.352 0.810721H147.245L154.336 15.5526V0.810721H158.577V24.3216H154.683L147.593 9.64593V24.3216H143.352V0.810721Z" fill="var(--fill-0, #E96652)"/>
<path d="M164.093 0.810721H178.788V5.27796H168.981V9.96029H177.761V14.4606H168.981V19.8544H179.053V24.3216H164.093V0.810721Z" fill="var(--fill-0, #E96652)"/>
<path d="M195.471 15.5857H200.424C200.203 18.4756 199.336 20.7644 197.823 22.452C196.321 24.1286 194.394 24.9669 192.041 24.9669C189.324 24.9669 187.187 23.8694 185.63 21.6744C184.084 19.4794 183.311 16.4405 183.311 12.5579C183.311 8.67527 184.084 5.64196 185.63 3.45797C187.187 1.26296 189.324 0.165453 192.041 0.165453C194.173 0.165453 195.968 0.871388 197.426 2.28326C198.883 3.68409 199.756 5.55372 200.043 7.89212H195.156C194.968 6.81116 194.604 5.98941 194.063 5.42687C193.521 4.8533 192.837 4.56651 192.008 4.56651C190.815 4.56651 189.915 5.20627 189.308 6.48577C188.711 7.75425 188.413 9.6349 188.413 12.1277C188.413 14.9735 188.711 17.0913 189.308 18.4811C189.915 19.8709 190.838 20.5658 192.075 20.5658C193.024 20.5658 193.786 20.1412 194.361 19.2919C194.946 18.4425 195.316 17.2071 195.471 15.5857Z" fill="var(--fill-0, #E96652)"/>
<path d="M209.834 5.27796H203.588V0.810721H221V5.27796H214.754V24.3216H209.834V5.27796Z" fill="var(--fill-0, #E96652)"/>
</g>
</svg>
