<svg preserveAspectRatio="none" width="100%" height="100%" overflow="visible" style="display: block;" viewBox="0 0 322 38" fill="none" xmlns="http://www.w3.org/2000/svg">
<g id="(temp, discard)">
<mask id="path-1-outside-1_261_1307" maskUnits="userSpaceOnUse" x="0" y="0" width="322" height="38" fill="black">
<rect fill="white" width="322" height="38"/>
<path d="M12.3463 2.16744C16.4883 2.16744 19.6387 3.6049 21.7976 6.47981C23.9565 9.35473 25.036 13.5559 25.036 19.0834C25.036 24.6744 23.9645 28.8994 21.8216 31.7584C19.6947 34.6016 16.5362 36.0232 12.3463 36.0232H1V2.16744H12.3463ZM12.3463 8.45731H8.22039V29.6856H12.3463C14.2174 29.6856 15.5687 28.8597 16.4003 27.2078C17.2479 25.5559 17.6717 22.8478 17.6717 19.0834C17.6717 15.589 17.2159 12.9444 16.3043 11.1496C15.4088 9.35473 14.0895 8.45731 12.3463 8.45731Z"/>
<path d="M46.7691 20.0126C46.6892 18.2972 46.2494 16.9709 45.4498 16.0338C44.6502 15.0807 43.5707 14.6042 42.2114 14.6042C40.948 14.6042 39.8846 15.1046 39.021 16.1052C38.1734 17.1059 37.7096 18.4083 37.6297 20.0126H46.7691ZM45.9775 28.9947H53.3658C52.3423 31.7584 50.927 33.7756 49.1199 35.0463C47.3288 36.317 44.97 36.9523 42.0435 36.9523C38.5412 36.9523 35.7586 35.6976 33.6957 33.188C31.6327 30.6784 30.6012 27.2475 30.6012 22.8954C30.6012 18.5751 31.6407 15.1602 33.7196 12.6506C35.8146 10.141 38.6452 8.88617 42.2114 8.88617C46.0335 8.88617 48.952 10.1171 50.967 12.5791C52.982 15.041 53.9895 18.6069 53.9895 23.2766C53.9895 23.769 53.9815 24.1423 53.9655 24.3964C53.9655 24.6347 53.9575 24.8491 53.9415 25.0397H37.4858C37.6617 27.0093 38.1814 28.5341 39.045 29.6142C39.9085 30.6942 41.028 31.2343 42.4033 31.2343C43.2029 31.2343 43.9065 31.0437 44.5142 30.6625C45.1379 30.2654 45.6257 29.7095 45.9775 28.9947Z"/>
<path d="M61.1379 2.16744H83.3988V8.60026H68.1664V15.3428H80.4003V21.8233H68.2144V36.0232H61.1379V2.16744Z"/>
<path d="M98.943 1H105.876V7.62343H98.943V1ZM113.432 30.6148V36.0232H90.5472V30.6148H98.943V16.1529H92.5622V10.6969H105.876V30.6148H113.432Z"/>
<path d="M137.19 14.0563C137.19 11.9437 136.79 10.3395 135.99 9.24355C135.207 8.1317 134.063 7.57578 132.56 7.57578C131.424 7.57578 130.385 7.98875 129.441 8.81469C128.498 9.62475 127.658 10.8398 126.923 12.46C126.123 14.2071 125.483 16.1608 125.004 18.321C124.54 20.4653 124.308 22.4825 124.308 24.3726C124.308 26.3898 124.7 27.9305 125.483 28.9947C126.267 30.043 127.402 30.5672 128.89 30.5672C130.169 30.5672 131.304 30.1463 132.296 29.3044C133.287 28.4467 134.199 27.1205 135.031 25.3256H142.395C141.244 29.09 139.476 31.9808 137.094 33.998C134.711 35.9993 131.864 37 128.554 37C124.828 37 121.965 35.8723 119.966 33.6168C117.983 31.3455 116.992 28.0814 116.992 23.8246C116.992 20.8862 117.423 17.9239 118.287 14.9378C119.167 11.9517 120.31 9.45003 121.717 7.43283C123.109 5.44739 124.764 3.93051 126.683 2.8822C128.618 1.818 130.713 1.2859 132.968 1.2859C136.518 1.2859 139.253 2.37392 141.172 4.54997C143.091 6.72601 144.122 9.89477 144.266 14.0563H137.19Z"/>
<path d="M160.4 7.52813C158.721 7.52813 157.418 8.46525 156.49 10.3395C155.563 12.1979 155.099 14.8425 155.099 18.2733C155.099 22.5142 155.531 25.6274 156.394 27.6128C157.274 29.5824 158.649 30.5672 160.52 30.5672C162.279 30.5672 163.575 29.6539 164.406 27.8273C165.254 25.9848 165.678 23.1019 165.678 19.1787C165.678 15.2555 165.238 12.3329 164.358 10.411C163.495 8.48908 162.175 7.52813 160.4 7.52813ZM147.783 18.7498C147.783 13.3336 148.918 9.06089 151.189 5.93183C153.46 2.80278 156.53 1.23825 160.4 1.23825C164.334 1.23825 167.421 2.8266 169.66 6.00331C171.915 9.16413 173.042 13.5242 173.042 19.0834C173.042 24.6585 171.915 29.0344 169.66 32.2111C167.421 35.3719 164.334 36.9523 160.4 36.9523C156.434 36.9523 153.34 35.3561 151.117 32.1635C148.894 28.9709 147.783 24.4997 147.783 18.7498Z"/>
<path d="M178.967 2.16744H184.604L194.871 23.3958V2.16744H201.012V36.0232H195.375L185.108 14.8901V36.0232H178.967V2.16744Z"/>
<path d="M208.568 2.16744H214.205L224.472 23.3958V2.16744H230.613V36.0232H224.976L214.709 14.8901V36.0232H208.568V2.16744Z"/>
<path d="M238.601 2.16744H259.879V8.60026H245.678V15.3428H258.391V21.8233H245.678V29.5903H260.262V36.0232H238.601V2.16744Z"/>
<path d="M284.034 23.4434H291.207C290.887 27.6049 289.632 30.9007 287.441 33.3309C285.266 35.7452 282.475 36.9523 279.069 36.9523C275.135 36.9523 272.04 35.3719 269.786 32.2111C267.547 29.0503 266.427 24.6744 266.427 19.0834C266.427 13.4924 267.547 9.12442 269.786 5.97948C272.04 2.81866 275.135 1.23825 279.069 1.23825C282.155 1.23825 284.754 2.2548 286.865 4.28789C288.976 6.3051 290.239 8.99735 290.655 12.3647H283.579C283.307 10.8081 282.779 9.62475 281.995 8.81469C281.212 7.98875 280.22 7.57578 279.021 7.57578C277.294 7.57578 275.99 8.49702 275.111 10.3395C274.247 12.1661 273.816 14.8743 273.816 18.4639C273.816 22.5619 274.247 25.6115 275.111 27.6128C275.99 29.6142 277.326 30.6148 279.117 30.6148C280.492 30.6148 281.596 30.0033 282.427 28.7803C283.275 27.5572 283.811 25.7783 284.034 23.4434Z"/>
<path d="M304.832 8.60026H295.789V2.16744H321V8.60026H311.957V36.0232H304.832V8.60026Z"/>
</mask>
<path d="M12.3463 2.16744C16.4883 2.16744 19.6387 3.6049 21.7976 6.47981C23.9565 9.35473 25.036 13.5559 25.036 19.0834C25.036 24.6744 23.9645 28.8994 21.8216 31.7584C19.6947 34.6016 16.5362 36.0232 12.3463 36.0232H1V2.16744H12.3463ZM12.3463 8.45731H8.22039V29.6856H12.3463C14.2174 29.6856 15.5687 28.8597 16.4003 27.2078C17.2479 25.5559 17.6717 22.8478 17.6717 19.0834C17.6717 15.589 17.2159 12.9444 16.3043 11.1496C15.4088 9.35473 14.0895 8.45731 12.3463 8.45731Z" fill="var(--fill-0, white)"/>
<path d="M46.7691 20.0126C46.6892 18.2972 46.2494 16.9709 45.4498 16.0338C44.6502 15.0807 43.5707 14.6042 42.2114 14.6042C40.948 14.6042 39.8846 15.1046 39.021 16.1052C38.1734 17.1059 37.7096 18.4083 37.6297 20.0126H46.7691ZM45.9775 28.9947H53.3658C52.3423 31.7584 50.927 33.7756 49.1199 35.0463C47.3288 36.317 44.97 36.9523 42.0435 36.9523C38.5412 36.9523 35.7586 35.6976 33.6957 33.188C31.6327 30.6784 30.6012 27.2475 30.6012 22.8954C30.6012 18.5751 31.6407 15.1602 33.7196 12.6506C35.8146 10.141 38.6452 8.88617 42.2114 8.88617C46.0335 8.88617 48.952 10.1171 50.967 12.5791C52.982 15.041 53.9895 18.6069 53.9895 23.2766C53.9895 23.769 53.9815 24.1423 53.9655 24.3964C53.9655 24.6347 53.9575 24.8491 53.9415 25.0397H37.4858C37.6617 27.0093 38.1814 28.5341 39.045 29.6142C39.9085 30.6942 41.028 31.2343 42.4033 31.2343C43.2029 31.2343 43.9065 31.0437 44.5142 30.6625C45.1379 30.2654 45.6257 29.7095 45.9775 28.9947Z" fill="var(--fill-0, white)"/>
<path d="M61.1379 2.16744H83.3988V8.60026H68.1664V15.3428H80.4003V21.8233H68.2144V36.0232H61.1379V2.16744Z" fill="var(--fill-0, white)"/>
<path d="M98.943 1H105.876V7.62343H98.943V1ZM113.432 30.6148V36.0232H90.5472V30.6148H98.943V16.1529H92.5622V10.6969H105.876V30.6148H113.432Z" fill="var(--fill-0, white)"/>
<path d="M137.19 14.0563C137.19 11.9437 136.79 10.3395 135.99 9.24355C135.207 8.1317 134.063 7.57578 132.56 7.57578C131.424 7.57578 130.385 7.98875 129.441 8.81469C128.498 9.62475 127.658 10.8398 126.923 12.46C126.123 14.2071 125.483 16.1608 125.004 18.321C124.54 20.4653 124.308 22.4825 124.308 24.3726C124.308 26.3898 124.7 27.9305 125.483 28.9947C126.267 30.043 127.402 30.5672 128.89 30.5672C130.169 30.5672 131.304 30.1463 132.296 29.3044C133.287 28.4467 134.199 27.1205 135.031 25.3256H142.395C141.244 29.09 139.476 31.9808 137.094 33.998C134.711 35.9993 131.864 37 128.554 37C124.828 37 121.965 35.8723 119.966 33.6168C117.983 31.3455 116.992 28.0814 116.992 23.8246C116.992 20.8862 117.423 17.9239 118.287 14.9378C119.167 11.9517 120.31 9.45003 121.717 7.43283C123.109 5.44739 124.764 3.93051 126.683 2.8822C128.618 1.818 130.713 1.2859 132.968 1.2859C136.518 1.2859 139.253 2.37392 141.172 4.54997C143.091 6.72601 144.122 9.89477 144.266 14.0563H137.19Z" fill="var(--fill-0, white)"/>
<path d="M160.4 7.52813C158.721 7.52813 157.418 8.46525 156.49 10.3395C155.563 12.1979 155.099 14.8425 155.099 18.2733C155.099 22.5142 155.531 25.6274 156.394 27.6128C157.274 29.5824 158.649 30.5672 160.52 30.5672C162.279 30.5672 163.575 29.6539 164.406 27.8273C165.254 25.9848 165.678 23.1019 165.678 19.1787C165.678 15.2555 165.238 12.3329 164.358 10.411C163.495 8.48908 162.175 7.52813 160.4 7.52813ZM147.783 18.7498C147.783 13.3336 148.918 9.06089 151.189 5.93183C153.46 2.80278 156.53 1.23825 160.4 1.23825C164.334 1.23825 167.421 2.8266 169.66 6.00331C171.915 9.16413 173.042 13.5242 173.042 19.0834C173.042 24.6585 171.915 29.0344 169.66 32.2111C167.421 35.3719 164.334 36.9523 160.4 36.9523C156.434 36.9523 153.34 35.3561 151.117 32.1635C148.894 28.9709 147.783 24.4997 147.783 18.7498Z" fill="var(--fill-0, white)"/>
<path d="M178.967 2.16744H184.604L194.871 23.3958V2.16744H201.012V36.0232H195.375L185.108 14.8901V36.0232H178.967V2.16744Z" fill="var(--fill-0, white)"/>
<path d="M208.568 2.16744H214.205L224.472 23.3958V2.16744H230.613V36.0232H224.976L214.709 14.8901V36.0232H208.568V2.16744Z" fill="var(--fill-0, white)"/>
<path d="M238.601 2.16744H259.879V8.60026H245.678V15.3428H258.391V21.8233H245.678V29.5903H260.262V36.0232H238.601V2.16744Z" fill="var(--fill-0, white)"/>
<path d="M284.034 23.4434H291.207C290.887 27.6049 289.632 30.9007 287.441 33.3309C285.266 35.7452 282.475 36.9523 279.069 36.9523C275.135 36.9523 272.04 35.3719 269.786 32.2111C267.547 29.0503 266.427 24.6744 266.427 19.0834C266.427 13.4924 267.547 9.12442 269.786 5.97948C272.04 2.81866 275.135 1.23825 279.069 1.23825C282.155 1.23825 284.754 2.2548 286.865 4.28789C288.976 6.3051 290.239 8.99735 290.655 12.3647H283.579C283.307 10.8081 282.779 9.62475 281.995 8.81469C281.212 7.98875 280.22 7.57578 279.021 7.57578C277.294 7.57578 275.99 8.49702 275.111 10.3395C274.247 12.1661 273.816 14.8743 273.816 18.4639C273.816 22.5619 274.247 25.6115 275.111 27.6128C275.99 29.6142 277.326 30.6148 279.117 30.6148C280.492 30.6148 281.596 30.0033 282.427 28.7803C283.275 27.5572 283.811 25.7783 284.034 23.4434Z" fill="var(--fill-0, white)"/>
<path d="M304.832 8.60026H295.789V2.16744H321V8.60026H311.957V36.0232H304.832V8.60026Z" fill="var(--fill-0, white)"/>
<path d="M12.3463 2.16744C16.4883 2.16744 19.6387 3.6049 21.7976 6.47981C23.9565 9.35473 25.036 13.5559 25.036 19.0834C25.036 24.6744 23.9645 28.8994 21.8216 31.7584C19.6947 34.6016 16.5362 36.0232 12.3463 36.0232H1V2.16744H12.3463ZM12.3463 8.45731H8.22039V29.6856H12.3463C14.2174 29.6856 15.5687 28.8597 16.4003 27.2078C17.2479 25.5559 17.6717 22.8478 17.6717 19.0834C17.6717 15.589 17.2159 12.9444 16.3043 11.1496C15.4088 9.35473 14.0895 8.45731 12.3463 8.45731Z" stroke="var(--stroke-0, white)" stroke-width="2" mask="url(#path-1-outside-1_261_1307)"/>
<path d="M46.7691 20.0126C46.6892 18.2972 46.2494 16.9709 45.4498 16.0338C44.6502 15.0807 43.5707 14.6042 42.2114 14.6042C40.948 14.6042 39.8846 15.1046 39.021 16.1052C38.1734 17.1059 37.7096 18.4083 37.6297 20.0126H46.7691ZM45.9775 28.9947H53.3658C52.3423 31.7584 50.927 33.7756 49.1199 35.0463C47.3288 36.317 44.97 36.9523 42.0435 36.9523C38.5412 36.9523 35.7586 35.6976 33.6957 33.188C31.6327 30.6784 30.6012 27.2475 30.6012 22.8954C30.6012 18.5751 31.6407 15.1602 33.7196 12.6506C35.8146 10.141 38.6452 8.88617 42.2114 8.88617C46.0335 8.88617 48.952 10.1171 50.967 12.5791C52.982 15.041 53.9895 18.6069 53.9895 23.2766C53.9895 23.769 53.9815 24.1423 53.9655 24.3964C53.9655 24.6347 53.9575 24.8491 53.9415 25.0397H37.4858C37.6617 27.0093 38.1814 28.5341 39.045 29.6142C39.9085 30.6942 41.028 31.2343 42.4033 31.2343C43.2029 31.2343 43.9065 31.0437 44.5142 30.6625C45.1379 30.2654 45.6257 29.7095 45.9775 28.9947Z" stroke="var(--stroke-0, white)" stroke-width="2" mask="url(#path-1-outside-1_261_1307)"/>
<path d="M61.1379 2.16744H83.3988V8.60026H68.1664V15.3428H80.4003V21.8233H68.2144V36.0232H61.1379V2.16744Z" stroke="var(--stroke-0, white)" stroke-width="2" mask="url(#path-1-outside-1_261_1307)"/>
<path d="M98.943 1H105.876V7.62343H98.943V1ZM113.432 30.6148V36.0232H90.5472V30.6148H98.943V16.1529H92.5622V10.6969H105.876V30.6148H113.432Z" stroke="var(--stroke-0, white)" stroke-width="2" mask="url(#path-1-outside-1_261_1307)"/>
<path d="M137.19 14.0563C137.19 11.9437 136.79 10.3395 135.99 9.24355C135.207 8.1317 134.063 7.57578 132.56 7.57578C131.424 7.57578 130.385 7.98875 129.441 8.81469C128.498 9.62475 127.658 10.8398 126.923 12.46C126.123 14.2071 125.483 16.1608 125.004 18.321C124.54 20.4653 124.308 22.4825 124.308 24.3726C124.308 26.3898 124.7 27.9305 125.483 28.9947C126.267 30.043 127.402 30.5672 128.89 30.5672C130.169 30.5672 131.304 30.1463 132.296 29.3044C133.287 28.4467 134.199 27.1205 135.031 25.3256H142.395C141.244 29.09 139.476 31.9808 137.094 33.998C134.711 35.9993 131.864 37 128.554 37C124.828 37 121.965 35.8723 119.966 33.6168C117.983 31.3455 116.992 28.0814 116.992 23.8246C116.992 20.8862 117.423 17.9239 118.287 14.9378C119.167 11.9517 120.31 9.45003 121.717 7.43283C123.109 5.44739 124.764 3.93051 126.683 2.8822C128.618 1.818 130.713 1.2859 132.968 1.2859C136.518 1.2859 139.253 2.37392 141.172 4.54997C143.091 6.72601 144.122 9.89477 144.266 14.0563H137.19Z" stroke="var(--stroke-0, white)" stroke-width="2" mask="url(#path-1-outside-1_261_1307)"/>
<path d="M160.4 7.52813C158.721 7.52813 157.418 8.46525 156.49 10.3395C155.563 12.1979 155.099 14.8425 155.099 18.2733C155.099 22.5142 155.531 25.6274 156.394 27.6128C157.274 29.5824 158.649 30.5672 160.52 30.5672C162.279 30.5672 163.575 29.6539 164.406 27.8273C165.254 25.9848 165.678 23.1019 165.678 19.1787C165.678 15.2555 165.238 12.3329 164.358 10.411C163.495 8.48908 162.175 7.52813 160.4 7.52813ZM147.783 18.7498C147.783 13.3336 148.918 9.06089 151.189 5.93183C153.46 2.80278 156.53 1.23825 160.4 1.23825C164.334 1.23825 167.421 2.8266 169.66 6.00331C171.915 9.16413 173.042 13.5242 173.042 19.0834C173.042 24.6585 171.915 29.0344 169.66 32.2111C167.421 35.3719 164.334 36.9523 160.4 36.9523C156.434 36.9523 153.34 35.3561 151.117 32.1635C148.894 28.9709 147.783 24.4997 147.783 18.7498Z" stroke="var(--stroke-0, white)" stroke-width="2" mask="url(#path-1-outside-1_261_1307)"/>
<path d="M178.967 2.16744H184.604L194.871 23.3958V2.16744H201.012V36.0232H195.375L185.108 14.8901V36.0232H178.967V2.16744Z" stroke="var(--stroke-0, white)" stroke-width="2" mask="url(#path-1-outside-1_261_1307)"/>
<path d="M208.568 2.16744H214.205L224.472 23.3958V2.16744H230.613V36.0232H224.976L214.709 14.8901V36.0232H208.568V2.16744Z" stroke="var(--stroke-0, white)" stroke-width="2" mask="url(#path-1-outside-1_261_1307)"/>
<path d="M238.601 2.16744H259.879V8.60026H245.678V15.3428H258.391V21.8233H245.678V29.5903H260.262V36.0232H238.601V2.16744Z" stroke="var(--stroke-0, white)" stroke-width="2" mask="url(#path-1-outside-1_261_1307)"/>
<path d="M284.034 23.4434H291.207C290.887 27.6049 289.632 30.9007 287.441 33.3309C285.266 35.7452 282.475 36.9523 279.069 36.9523C275.135 36.9523 272.04 35.3719 269.786 32.2111C267.547 29.0503 266.427 24.6744 266.427 19.0834C266.427 13.4924 267.547 9.12442 269.786 5.97948C272.04 2.81866 275.135 1.23825 279.069 1.23825C282.155 1.23825 284.754 2.2548 286.865 4.28789C288.976 6.3051 290.239 8.99735 290.655 12.3647H283.579C283.307 10.8081 282.779 9.62475 281.995 8.81469C281.212 7.98875 280.22 7.57578 279.021 7.57578C277.294 7.57578 275.99 8.49702 275.111 10.3395C274.247 12.1661 273.816 14.8743 273.816 18.4639C273.816 22.5619 274.247 25.6115 275.111 27.6128C275.99 29.6142 277.326 30.6148 279.117 30.6148C280.492 30.6148 281.596 30.0033 282.427 28.7803C283.275 27.5572 283.811 25.7783 284.034 23.4434Z" stroke="var(--stroke-0, white)" stroke-width="2" mask="url(#path-1-outside-1_261_1307)"/>
<path d="M304.832 8.60026H295.789V2.16744H321V8.60026H311.957V36.0232H304.832V8.60026Z" stroke="var(--stroke-0, white)" stroke-width="2" mask="url(#path-1-outside-1_261_1307)"/>
</g>
</svg>
