<svg preserveAspectRatio="none" width="100%" height="100%" overflow="visible" style="display: block;" viewBox="0 0 36 36" fill="none" xmlns="http://www.w3.org/2000/svg">
<g id="Union">
<mask id="path-1-outside-1_261_1309" maskUnits="userSpaceOnUse" x="-0.749998" y="-0.75" width="37" height="37" fill="black">
<rect fill="white" x="-0.749998" y="-0.75" width="37" height="37"/>
<path d="M17.7119 0.25C17.8651 0.25 17.9882 7.88077 17.9912 17.3643C22.6799 12.6827 26.4736 9.01461 26.5498 9.09082C26.6116 9.17875 23.0578 12.8507 18.4873 17.4316C27.7712 17.4381 35.1734 17.561 35.1738 17.7119C35.1736 17.8651 27.5371 17.9874 18.0488 17.9902C22.8298 22.7746 26.6129 26.683 26.5479 26.7725C26.4716 26.8487 22.6792 23.1799 17.9902 18.498C17.9836 27.7772 17.8627 35.1738 17.7119 35.1738C17.5613 35.1587 17.4391 27.7625 17.4326 18.4883C12.7497 23.1643 8.95954 26.8331 8.86719 26.7734C8.78977 26.696 12.576 22.7819 17.3643 17.9902C7.88095 17.9873 0.250276 17.8651 0.250002 17.7119C0.250436 17.5611 7.64694 17.4392 16.9258 17.4326C12.3471 12.8435 8.79117 9.16586 8.86621 9.09082C8.95442 9.02685 12.7464 12.6958 17.4316 17.374C17.4345 7.8956 17.5589 0.26542 17.7119 0.25Z"/>
</mask>
<path d="M17.7119 0.25C17.8651 0.25 17.9882 7.88077 17.9912 17.3643C22.6799 12.6827 26.4736 9.01461 26.5498 9.09082C26.6116 9.17875 23.0578 12.8507 18.4873 17.4316C27.7712 17.4381 35.1734 17.561 35.1738 17.7119C35.1736 17.8651 27.5371 17.9874 18.0488 17.9902C22.8298 22.7746 26.6129 26.683 26.5479 26.7725C26.4716 26.8487 22.6792 23.1799 17.9902 18.498C17.9836 27.7772 17.8627 35.1738 17.7119 35.1738C17.5613 35.1587 17.4391 27.7625 17.4326 18.4883C12.7497 23.1643 8.95954 26.8331 8.86719 26.7734C8.78977 26.696 12.576 22.7819 17.3643 17.9902C7.88095 17.9873 0.250276 17.8651 0.250002 17.7119C0.250436 17.5611 7.64694 17.4392 16.9258 17.4326C12.3471 12.8435 8.79117 9.16586 8.86621 9.09082C8.95442 9.02685 12.7464 12.6958 17.4316 17.374C17.4345 7.8956 17.5589 0.26542 17.7119 0.25Z" fill="var(--fill-0, white)"/>
<path d="M17.7119 0.25V0H17.6994L17.6868 0.00125979L17.7119 0.25ZM17.9912 17.3643L17.7412 17.3643L17.7414 17.967L18.1679 17.5412L17.9912 17.3643ZM26.5498 9.09082L26.7544 8.9471L26.7419 8.92937L26.7266 8.91404L26.5498 9.09082ZM18.4873 17.4316L18.3103 17.2551L17.8851 17.6812L18.4871 17.6816L18.4873 17.4316ZM35.1738 17.7119L35.4238 17.7124L35.4238 17.7112L35.1738 17.7119ZM18.0488 17.9902L18.0488 17.7402L17.4458 17.7404L17.872 18.1669L18.0488 17.9902ZM26.5479 26.7725L26.7246 26.9492L26.7385 26.9354L26.7501 26.9195L26.5479 26.7725ZM17.9902 18.498L18.1669 18.3211L17.7407 17.8956L17.7402 18.4979L17.9902 18.498ZM17.7119 35.1738L17.687 35.4226L17.6994 35.4238H17.7119V35.1738ZM17.4326 18.4883L17.6826 18.4881L17.6822 17.8858L17.256 18.3114L17.4326 18.4883ZM8.86719 26.7734L8.69041 26.9502L8.70917 26.969L8.73145 26.9834L8.86719 26.7734ZM17.3643 17.9902L17.5411 18.1669L17.9673 17.7404L17.3643 17.7402L17.3643 17.9902ZM0.250002 17.7119L1.10236e-08 17.7112L2.09915e-06 17.7124L0.250002 17.7119ZM16.9258 17.4326L16.926 17.6826L17.5279 17.6822L17.1028 17.256L16.9258 17.4326ZM8.86621 9.09082L8.71944 8.88844L8.70342 8.90006L8.68944 8.91404L8.86621 9.09082ZM17.4316 17.374L17.255 17.5509L17.6815 17.9768L17.6816 17.3741L17.4316 17.374ZM17.7119 0.25V0.5C17.5772 0.5 17.5144 0.399558 17.5087 0.390649C17.4937 0.367234 17.4882 0.348665 17.4881 0.348559C17.4869 0.344791 17.4893 0.351717 17.4934 0.377528C17.5011 0.425601 17.5097 0.504168 17.5186 0.616189C17.5362 0.838124 17.5534 1.16912 17.5699 1.60007C17.603 2.46087 17.6328 3.70891 17.6579 5.25489C17.7082 8.34629 17.7397 12.6235 17.7412 17.3643L17.9912 17.3643L18.2412 17.3642C18.2397 12.6216 18.2082 8.34161 18.1579 5.24676C18.1327 3.69961 18.1028 2.44724 18.0696 1.5809C18.053 1.14829 18.0354 0.809043 18.017 0.576625C18.0078 0.46147 17.9981 0.366833 17.9871 0.298497C17.9819 0.266104 17.9749 0.229023 17.9642 0.1958C17.9595 0.180966 17.9492 0.151307 17.9294 0.120485C17.919 0.104168 17.8514 0 17.7119 0V0.25ZM17.9912 17.3643L18.1679 17.5412C20.5116 15.201 22.6312 13.1146 24.174 11.6231C24.9455 10.8772 25.5718 10.2811 26.0094 9.87665C26.2286 9.67407 26.3983 9.5216 26.5144 9.42291C26.5733 9.37288 26.614 9.34042 26.6386 9.32269C26.6524 9.31276 26.653 9.31344 26.645 9.31751C26.6426 9.31871 26.6236 9.32864 26.5948 9.33467C26.5816 9.33743 26.4673 9.36189 26.373 9.2676L26.5498 9.09082L26.7266 8.91404C26.6299 8.81736 26.5114 8.84128 26.4923 8.84529C26.4575 8.85258 26.4307 8.86556 26.4187 8.87162C26.3916 8.88538 26.366 8.9029 26.3467 8.9168C26.3051 8.94671 26.2519 8.98982 26.1906 9.04193C26.0663 9.14755 25.8905 9.30572 25.67 9.50946C25.2283 9.91769 24.5989 10.5169 23.8264 11.2636C22.2811 12.7576 20.1595 14.846 17.8146 17.1873L17.9912 17.3643ZM26.5498 9.09082L26.3452 9.23454C26.2788 9.13995 26.3056 9.0445 26.3077 9.03606C26.3139 9.01169 26.3224 8.99581 26.3235 8.99369C26.3269 8.98713 26.3269 8.98861 26.3171 9.00216C26.2993 9.0268 26.2672 9.06696 26.2182 9.12458C26.1214 9.23831 25.9726 9.4038 25.7753 9.61726C25.3813 10.0434 24.8016 10.6522 24.076 11.4026C22.6251 12.9029 20.595 14.9652 18.3103 17.2551L18.4873 17.4316L18.6643 17.6082C20.9501 15.3172 22.9822 13.253 24.4354 11.7501C25.1618 10.9989 25.7446 10.387 26.1424 9.9567C26.3409 9.74197 26.4954 9.57037 26.599 9.44856C26.6502 9.38841 26.6926 9.33619 26.7222 9.29515C26.7362 9.27586 26.7531 9.25116 26.7667 9.22528C26.7728 9.21349 26.7846 9.18965 26.7924 9.15905C26.7961 9.14439 26.8228 9.04444 26.7544 8.9471L26.5498 9.09082ZM18.4873 17.4316L18.4871 17.6816C23.1282 17.6849 27.2983 17.7172 30.3077 17.7676C31.8126 17.7928 33.0259 17.8225 33.8621 17.8552C34.2808 17.8716 34.6021 17.8886 34.8174 17.906C34.9261 17.9148 35.002 17.9232 35.0482 17.9307C35.0731 17.9348 35.0792 17.937 35.0749 17.9356C35.0744 17.9354 35.0556 17.9297 35.032 17.9144C35.0221 17.9079 34.9242 17.8453 34.9238 17.7126L35.1738 17.7119L35.4238 17.7112C35.4234 17.5738 35.322 17.5065 35.3048 17.4953C35.274 17.4753 35.2444 17.4649 35.2297 17.4601C35.1967 17.4494 35.1601 17.4424 35.1285 17.4372C35.0617 17.4264 34.9695 17.4167 34.8576 17.4076C34.6317 17.3894 34.3021 17.372 33.8817 17.3556C33.0398 17.3226 31.8222 17.2929 30.316 17.2677C27.3032 17.2173 23.1303 17.1849 18.4875 17.1816L18.4873 17.4316ZM35.1738 17.7119L34.9238 17.7115C34.9241 17.5768 35.0245 17.5143 35.0333 17.5086C35.0567 17.4936 35.0752 17.4881 35.0753 17.4881C35.0791 17.4869 35.0721 17.4893 35.0462 17.4934C34.9981 17.5011 34.9195 17.5096 34.8073 17.5185C34.5852 17.5361 34.2539 17.5533 33.8227 17.5698C32.9612 17.6028 31.7123 17.6325 30.1653 17.6575C27.0718 17.7075 22.792 17.7388 18.0488 17.7402L18.0488 17.9902L18.0489 18.2402C22.7939 18.2388 27.0765 18.2075 30.1734 18.1574C31.7215 18.1324 32.9748 18.1026 33.8418 18.0695C34.2747 18.0529 34.6142 18.0354 34.8468 18.017C34.9621 18.0078 35.0568 17.9981 35.1252 17.9871C35.1576 17.9819 35.1947 17.9749 35.2279 17.9643C35.2427 17.9595 35.2724 17.9493 35.3032 17.9295C35.3194 17.9191 35.4236 17.8518 35.4238 17.7124L35.1738 17.7119ZM18.0488 17.9902L17.872 18.1669C20.2618 20.5585 22.4019 22.7307 23.9359 24.3158C24.7032 25.1085 25.3179 25.7534 25.7362 26.2052C25.9458 26.4314 26.1041 26.6071 26.2073 26.728C26.2595 26.7892 26.2941 26.8322 26.3136 26.8589C26.3243 26.8735 26.325 26.8759 26.322 26.8702C26.3211 26.8686 26.3126 26.853 26.3063 26.8288C26.3045 26.8223 26.275 26.7226 26.3456 26.6255L26.5479 26.7725L26.7501 26.9195C26.8227 26.8195 26.7933 26.7152 26.7899 26.7021C26.7819 26.6715 26.7698 26.6476 26.7636 26.6357C26.7497 26.6097 26.7323 26.5845 26.7177 26.5644C26.6865 26.5217 26.6419 26.4669 26.5875 26.4033C26.4776 26.2746 26.3138 26.0929 26.1031 25.8654C25.681 25.4096 25.0633 24.7617 24.2952 23.9681C22.7588 22.3805 20.6168 20.2063 18.2257 17.8135L18.0488 17.9902ZM26.5479 26.7725L26.3711 26.5957C26.4654 26.5014 26.5797 26.5259 26.5928 26.5286C26.6217 26.5347 26.6407 26.5446 26.6431 26.5458C26.6511 26.5499 26.6505 26.5505 26.6367 26.5406C26.6121 26.5229 26.5714 26.4904 26.5125 26.4404C26.3965 26.3417 26.2268 26.1892 26.0077 25.9866C25.5702 25.5821 24.9441 24.9859 24.1726 24.2398C22.6301 22.7481 20.5108 20.6615 18.1669 18.3211L17.9902 18.498L17.8136 18.675C20.1587 21.0165 22.28 23.1052 23.825 24.5993C24.5973 25.3461 25.2267 25.9454 25.6682 26.3537C25.8886 26.5575 26.0644 26.7157 26.1886 26.8213C26.2499 26.8734 26.3031 26.9165 26.3447 26.9464C26.364 26.9603 26.3896 26.9779 26.4168 26.9916C26.4287 26.9977 26.4555 27.0107 26.4903 27.018C26.5095 27.022 26.6279 27.0459 26.7246 26.9492L26.5479 26.7725ZM17.9902 18.498L17.7402 18.4979C17.7369 23.1366 17.7051 27.3041 17.6552 30.3115C17.6302 31.8154 17.6008 33.0278 17.5683 33.8634C17.552 34.2818 17.535 34.6027 17.5177 34.8178C17.509 34.9264 17.5006 35.0022 17.4931 35.0484C17.489 35.0733 17.4868 35.0793 17.4883 35.0749C17.4884 35.0744 17.4941 35.0555 17.5096 35.0319C17.5161 35.0218 17.579 34.9238 17.7119 34.9238V35.1738V35.4238C17.8496 35.4238 17.9171 35.3223 17.9284 35.305C17.9485 35.2742 17.9589 35.2445 17.9637 35.2298C17.9744 35.1968 17.9815 35.1602 17.9866 35.1286C17.9974 35.0619 18.0071 34.9697 18.0161 34.858C18.0343 34.6323 18.0516 34.3029 18.0679 33.8828C18.1007 33.0416 18.1302 31.8249 18.1551 30.3198C18.2051 27.309 18.2369 23.1386 18.2402 18.4982L17.9902 18.498ZM17.7119 35.1738L17.7369 34.9251C17.86 34.9374 17.9138 35.0302 17.9181 35.0371C17.9313 35.0588 17.9362 35.0756 17.9363 35.0757C17.9373 35.0788 17.9349 35.0715 17.9309 35.0463C17.9233 34.9991 17.9149 34.9222 17.9061 34.813C17.8888 34.5964 17.8718 34.2742 17.8554 33.8548C17.8228 33.0172 17.7933 31.8036 17.7682 30.2991C17.718 27.2906 17.6859 23.1244 17.6826 18.4881L17.4326 18.4883L17.1826 18.4885C17.1859 23.1264 17.218 27.2954 17.2683 30.3074C17.2934 31.8131 17.323 33.031 17.3558 33.8743C17.3722 34.2953 17.3895 34.6258 17.4077 34.8529C17.4167 34.9654 17.4264 35.0581 17.4372 35.1254C17.4423 35.1574 17.4492 35.1937 17.4595 35.2263C17.4642 35.2411 17.4737 35.269 17.4917 35.2983C17.5006 35.3129 17.5591 35.4098 17.687 35.4226L17.7119 35.1738ZM17.4326 18.4883L17.256 18.3114C14.9151 20.6488 12.7978 22.734 11.2546 24.2271C10.4828 24.9738 9.8556 25.5714 9.41615 25.9782C9.19604 26.1819 9.0251 26.3358 8.90744 26.4362C8.84788 26.487 8.80602 26.5206 8.78002 26.5395C8.76586 26.5498 8.76353 26.5505 8.76915 26.5475C8.77088 26.5466 8.78576 26.5385 8.80884 26.5322C8.81537 26.5304 8.90798 26.5021 9.00293 26.5635L8.86719 26.7734L8.73145 26.9834C8.82929 27.0466 8.92658 27.0183 8.93959 27.0148C8.96914 27.0068 8.99229 26.9951 9.00404 26.9889C9.02971 26.9752 9.05448 26.9581 9.07429 26.9437C9.11624 26.9132 9.16985 26.8695 9.23192 26.8166C9.3575 26.7095 9.53441 26.55 9.75578 26.3451C10.1993 25.9346 10.8296 25.334 11.6023 24.5864C13.148 23.091 15.2672 21.0038 17.6093 18.6652L17.4326 18.4883ZM8.86719 26.7734L9.04397 26.5967C9.13956 26.6923 9.11324 26.8083 9.1107 26.82C9.10454 26.8484 9.09467 26.8671 9.0936 26.8691C9.08976 26.8766 9.08948 26.8755 9.09985 26.8612C9.11847 26.8354 9.15226 26.7932 9.20397 26.7325C9.30603 26.6127 9.46347 26.4378 9.67235 26.212C10.0893 25.7614 10.7035 25.1167 11.4708 24.3235C13.005 22.7376 15.1476 20.5621 17.5411 18.1669L17.3643 17.9902L17.1874 17.8135C14.7927 20.21 12.648 22.3874 11.1114 23.9759C10.3433 24.7699 9.72613 25.4177 9.30535 25.8724C9.09534 26.0994 8.93227 26.2804 8.82338 26.4082C8.76962 26.4713 8.72533 26.5258 8.69466 26.5682C8.68038 26.588 8.66265 26.6138 8.64873 26.6409C8.64262 26.6528 8.62955 26.6795 8.62205 26.714C8.61818 26.7319 8.5924 26.8522 8.69041 26.9502L8.86719 26.7734ZM17.3643 17.9902L17.3643 17.7402C12.6235 17.7387 8.34644 17.7075 5.25504 17.6574C3.70906 17.6324 2.46101 17.6027 1.60019 17.5698C1.16922 17.5533 0.838205 17.5361 0.616246 17.5185C0.504213 17.5096 0.425629 17.5011 0.377537 17.4934C0.351719 17.4893 0.344774 17.4869 0.34852 17.4881C0.348621 17.4881 0.367153 17.4936 0.390537 17.5086C0.399383 17.5143 0.49976 17.5769 0.500001 17.7115L0.250002 17.7119L2.09915e-06 17.7124C0.000251571 17.8517 0.104363 17.9191 0.120626 17.9295C0.151425 17.9493 0.181055 17.9595 0.195892 17.9642C0.229109 17.9749 0.266184 17.9819 0.298585 17.9871C0.366931 17.998 0.461577 18.0078 0.576744 18.0169C0.809183 18.0354 1.14844 18.0529 1.58107 18.0694C2.44743 18.1026 3.69981 18.1323 5.24695 18.1574C8.34178 18.2075 12.6217 18.2387 17.3642 18.2402L17.3643 17.9902ZM0.250002 17.7119L0.500001 17.7126C0.499619 17.8453 0.401813 17.9079 0.39182 17.9144C0.368247 17.9297 0.349408 17.9354 0.348951 17.9356C0.34455 17.937 0.350643 17.9348 0.375522 17.9308C0.421714 17.9233 0.497573 17.9148 0.606186 17.9061C0.82128 17.8887 1.1423 17.8717 1.56069 17.8554C2.39635 17.8228 3.60872 17.7932 5.11265 17.7682C8.11996 17.718 12.2874 17.6859 16.926 17.6826L16.9258 17.4326L16.9256 17.1826C12.2853 17.1859 8.11509 17.218 5.10432 17.2682C3.59922 17.2933 2.38246 17.3229 1.54118 17.3558C1.12111 17.3722 0.791718 17.3895 0.565986 17.4077C0.454187 17.4167 0.362031 17.4264 0.295297 17.4372C0.263714 17.4424 0.227116 17.4494 0.194134 17.4601C0.179386 17.465 0.149783 17.4753 0.119016 17.4954C0.101829 17.5065 0.000397992 17.5738 2.73331e-06 17.7112L0.250002 17.7119ZM16.9258 17.4326L17.1028 17.256C14.814 14.9621 12.7813 12.8964 11.3306 11.3952C10.6051 10.6444 10.0261 10.0359 9.63365 9.61092C9.43705 9.39804 9.28931 9.23342 9.19383 9.12086C9.14538 9.06374 9.1142 9.02448 9.09732 9.00091C9.08782 8.98764 9.08888 8.98763 9.09317 8.99619C9.09451 8.99884 9.10448 9.01821 9.11039 9.04743C9.11333 9.06199 9.13601 9.17457 9.04299 9.2676L8.86621 9.09082L8.68944 8.91404C8.59407 9.00941 8.61618 9.1261 8.6203 9.1465C8.62739 9.18157 8.6403 9.20851 8.6463 9.22047C8.65993 9.24763 8.67725 9.27309 8.69079 9.29199C8.71999 9.33278 8.76198 9.3847 8.81253 9.44429C8.91504 9.56514 9.06856 9.736 9.26632 9.95014C9.66262 10.3793 10.2447 10.991 10.9711 11.7427C12.4242 13.2463 14.4589 15.314 16.7488 17.6092L16.9258 17.4326ZM8.86621 9.09082L9.01299 9.2932C8.91701 9.36281 8.81871 9.3347 8.81107 9.33274C8.78663 9.32649 8.77078 9.31794 8.76889 9.31695C8.76267 9.31368 8.76457 9.31404 8.77864 9.32424C8.8043 9.34287 8.84588 9.37618 8.90528 9.42678C9.02257 9.52672 9.19322 9.68027 9.41314 9.88372C9.85221 10.2899 10.4793 10.8872 11.2512 11.6338C12.7947 13.1266 14.913 15.2124 17.255 17.5509L17.4316 17.374L17.6083 17.1971C15.2651 14.8574 13.1448 12.7696 11.5989 11.2744C10.8261 10.527 10.1958 9.92664 9.75268 9.51669C9.5315 9.31207 9.35482 9.15293 9.22955 9.0462C9.16767 8.99347 9.11416 8.94994 9.0723 8.91957C9.0526 8.90528 9.02763 8.88809 9.00161 8.87441C8.98981 8.8682 8.96582 8.85623 8.93503 8.84835C8.92104 8.84477 8.81817 8.81684 8.71944 8.88844L8.86621 9.09082ZM17.4316 17.374L17.6816 17.3741C17.6831 12.6358 17.7149 8.36002 17.7654 5.26747C17.7907 3.72092 17.8207 2.47166 17.8538 1.60882C17.8704 1.17686 17.8876 0.844588 17.9053 0.621139C17.9142 0.508417 17.9228 0.428857 17.9305 0.379685C17.9347 0.353505 17.9371 0.345393 17.9364 0.347858C17.9359 0.34925 17.9347 0.353074 17.9325 0.358534C17.9304 0.363579 17.9261 0.373394 17.9188 0.385474C17.9153 0.391246 17.8617 0.486173 17.737 0.49874L17.7119 0.25L17.6868 0.00125979C17.5574 0.0143087 17.499 0.113436 17.4907 0.127082C17.473 0.156393 17.4636 0.184369 17.4589 0.1993C17.4487 0.232121 17.4418 0.268887 17.4366 0.301752C17.4258 0.370674 17.416 0.46588 17.4068 0.581785C17.3884 0.815588 17.3708 1.156 17.3542 1.58964C17.3208 2.458 17.2908 3.71157 17.2655 5.2593C17.2149 8.3553 17.1831 12.6339 17.1816 17.3739L17.4316 17.374Z" fill="var(--stroke-0, white)" mask="url(#path-1-outside-1_261_1309)"/>
</g>
</svg>
